<svg width="891" height="549" viewBox="0 0 891 549" fill="none" xmlns="http://www.w3.org/2000/svg">
<g clip-path="url(#clip0_62_14)">
<rect width="891" height="549" fill="white"/>
<g clip-path="url(#clip1_62_14)">
<mask id="mask0_62_14" style="mask-type:luminance" maskUnits="userSpaceOnUse" x="0" y="0" width="891" height="561">
<path d="M0 0H891V561H0V0Z" fill="white"/>
</mask>
<g mask="url(#mask0_62_14)">
<path opacity="0.13" d="M1131.36 194.447C459.389 104.978 325.044 529.787 -223.276 547.056" stroke="#2B8BCB" stroke-miterlimit="10"/>
<path opacity="0.16" d="M1128.33 204.744C462.925 111.771 320.623 537.398 -223.257 548.102" stroke="#2B8BCB" stroke-miterlimit="10"/>
<path opacity="0.19" d="M1125.29 215.007C466.468 118.597 316.207 545.043 -223.237 549.148" stroke="#2B8BCB" stroke-miterlimit="10"/>
<path opacity="0.21" d="M1122.29 225.298C469.968 125.395 311.825 552.682 -223.189 550.154" stroke="#2B8BCB" stroke-miterlimit="10"/>
<path opacity="0.24" d="M1119.25 235.561C473.504 132.187 307.409 560.327 -223.17 551.2" stroke="#2B8BCB" stroke-miterlimit="10"/>
<path opacity="0.27" d="M1116.22 245.858C477.046 139.014 302.993 567.972 -223.151 552.246" stroke="#2B8BCB" stroke-miterlimit="10"/>
<path opacity="0.3" d="M1113.18 256.121C480.547 145.812 298.577 575.617 -223.096 553.286" stroke="#2B8BCB" stroke-miterlimit="10"/>
<path opacity="0.33" d="M1110.15 266.418C484.083 152.604 294.161 583.262 -223.083 554.298" stroke="#2B8BCB" stroke-miterlimit="10"/>
<path opacity="0.35" d="M1107.11 276.715C487.59 159.436 289.78 590.902 -223.064 555.344" stroke="#2B8BCB" stroke-miterlimit="10"/>
<path opacity="0.38" d="M1104.08 286.978C491.126 166.228 285.328 598.552 -223.045 556.39" stroke="#2B8BCB" stroke-miterlimit="10"/>
<path opacity="0.41" d="M1101.08 297.269C494.667 173.055 280.946 606.192 -222.992 557.431" stroke="#2B8BCB" stroke-miterlimit="10"/>
<path opacity="0.44" d="M1098.04 307.532C498.163 179.818 276.531 613.837 -222.977 558.443" stroke="#2B8BCB" stroke-miterlimit="10"/>
<path opacity="0.47" d="M1095.01 317.829C501.705 186.645 272.15 621.476 -222.923 559.483" stroke="#2B8BCB" stroke-miterlimit="10"/>
<path opacity="0.49" d="M1091.97 328.091C505.206 193.442 267.734 629.121 -222.904 560.529" stroke="#2B8BCB" stroke-miterlimit="10"/>
<path opacity="0.52" d="M1088.93 338.388C508.747 200.269 263.317 636.766 -222.885 561.575" stroke="#2B8BCB" stroke-miterlimit="10"/>
<path opacity="0.55" d="M1085.89 348.651C512.243 207.032 258.896 644.377 -222.871 562.587" stroke="#2B8BCB" stroke-miterlimit="10"/>
<path opacity="0.58" d="M1082.9 358.943C515.82 213.853 254.52 652.051 -222.818 563.627" stroke="#2B8BCB" stroke-miterlimit="10"/>
<path opacity="0.61" d="M1079.86 369.205C519.321 220.651 250.099 659.661 -222.803 564.639" stroke="#2B8BCB" stroke-miterlimit="10"/>
<path opacity="0.64" d="M1076.82 379.502C522.862 227.478 245.688 667.34 -222.779 565.719" stroke="#2B8BCB" stroke-miterlimit="10"/>
<path opacity="0.66" d="M1073.78 389.765C526.363 234.275 241.265 674.951 -222.731 566.726" stroke="#2B8BCB" stroke-miterlimit="10"/>
<path opacity="0.69" d="M1070.75 400.062C529.899 241.068 236.849 682.596 -222.712 567.771" stroke="#2B8BCB" stroke-miterlimit="10"/>
<path opacity="0.72" d="M1067.71 410.324C533.401 247.865 232.434 690.241 -222.698 568.783" stroke="#2B8BCB" stroke-miterlimit="10"/>
<path opacity="0.75" d="M1064.68 420.621C536.943 254.692 228.018 697.886 -222.673 569.863" stroke="#2B8BCB" stroke-miterlimit="10"/>
<path opacity="0.78" d="M1061.68 430.913C540.479 261.484 223.636 705.526 -222.625 570.87" stroke="#2B8BCB" stroke-miterlimit="10"/>
<path opacity="0.8" d="M1058.64 441.176C543.984 268.316 219.219 713.171 -222.606 571.916" stroke="#2B8BCB" stroke-miterlimit="10"/>
<path opacity="0.83" d="M1055.61 451.473C547.521 275.108 214.804 720.816 -222.552 572.956" stroke="#2B8BCB" stroke-miterlimit="10"/>
<path opacity="0.86" d="M1052.57 461.735C551.057 281.901 210.387 728.461 -222.538 573.968" stroke="#2B8BCB" stroke-miterlimit="10"/>
<path opacity="0.89" d="M1049.54 472.032C554.564 288.733 206.007 736.1 -222.519 575.014" stroke="#2B8BCB" stroke-miterlimit="10"/>
<path opacity="0.92" d="M1046.5 482.295C558.1 295.525 201.59 743.745 -222.5 576.06" stroke="#2B8BCB" stroke-miterlimit="10"/>
<path opacity="0.94" d="M1043.5 492.586C561.6 302.323 197.173 751.39 -222.447 577.101" stroke="#2B8BCB" stroke-miterlimit="10"/>
<path opacity="0.97" d="M1040.46 502.849C565.143 309.149 192.758 759.035 -222.432 578.113" stroke="#2B8BCB" stroke-miterlimit="10"/>
<path d="M1037.43 513.146C568.679 315.942 188.377 766.675 -222.413 579.159" stroke="#2B8BCB" stroke-miterlimit="10"/>
<path opacity="0.81" d="M1179.95 273.901C889.118 396.169 283.768 -540.547 -276.347 -142.202" stroke="#363A49" stroke-miterlimit="10"/>
<path opacity="0.8" d="M1180.02 274.316C878.679 401.766 277.447 -536.159 -278.868 -139.956" stroke="#363A49" stroke-miterlimit="10"/>
<path opacity="0.8" d="M1180.09 274.765C868.24 407.397 271.128 -531.772 -281.425 -137.711" stroke="#363A49" stroke-miterlimit="10"/>
<path opacity="0.79" d="M1180.17 275.18C857.802 412.994 264.843 -527.419 -283.945 -135.465" stroke="#363A49" stroke-miterlimit="10"/>
<path opacity="0.79" d="M1180.24 275.629C847.363 418.625 258.523 -523.031 -286.502 -133.219" stroke="#363A49" stroke-miterlimit="10"/>
<path opacity="0.78" d="M1180.31 276.043C836.923 424.222 252.202 -518.643 -289.023 -130.974" stroke="#363A49" stroke-miterlimit="10"/>
<path opacity="0.78" d="M1180.41 276.493C826.484 429.854 245.882 -514.256 -291.544 -128.728" stroke="#363A49" stroke-miterlimit="10"/>
<path opacity="0.77" d="M1180.48 276.907C816.046 435.45 239.598 -509.903 -294.1 -126.482" stroke="#363A49" stroke-miterlimit="10"/>
<path opacity="0.77" d="M1180.56 277.356C805.607 441.082 233.278 -505.515 -296.621 -124.237" stroke="#363A49" stroke-miterlimit="10"/>
<path opacity="0.76" d="M1180.63 277.771C795.168 446.679 226.958 -501.127 -299.177 -121.991" stroke="#363A49" stroke-miterlimit="10"/>
<path opacity="0.76" d="M1180.7 278.22C784.729 452.31 220.673 -496.739 -301.699 -119.745" stroke="#363A49" stroke-miterlimit="10"/>
<path opacity="0.75" d="M1180.77 278.669C774.29 457.907 214.353 -492.352 -304.255 -117.5" stroke="#363A49" stroke-miterlimit="10"/>
<path opacity="0.74" d="M1180.84 279.083C763.852 463.538 208.033 -487.999 -306.776 -115.254" stroke="#363A49" stroke-miterlimit="10"/>
<path opacity="0.74" d="M1180.95 279.533C753.413 469.135 201.713 -483.611 -309.332 -113.008" stroke="#363A49" stroke-miterlimit="10"/>
<path opacity="0.73" d="M1181.02 279.947C742.974 474.767 195.428 -479.223 -311.853 -110.763" stroke="#363A49" stroke-miterlimit="10"/>
<path opacity="0.73" d="M1181.09 280.397C732.534 480.364 189.107 -474.836 -314.41 -108.517" stroke="#363A49" stroke-miterlimit="10"/>
<path opacity="0.72" d="M1181.16 280.811C722.096 485.995 182.787 -470.483 -316.931 -106.271" stroke="#363A49" stroke-miterlimit="10"/>
<path opacity="0.72" d="M1181.23 281.26C711.657 491.592 176.503 -466.095 -319.487 -104.026" stroke="#363A49" stroke-miterlimit="10"/>
<path opacity="0.71" d="M1181.3 281.675C701.217 497.223 170.182 -461.707 -322.009 -101.78" stroke="#363A49" stroke-miterlimit="10"/>
<path opacity="0.71" d="M1181.37 282.124C690.779 502.82 163.863 -457.32 -324.565 -99.5344" stroke="#363A49" stroke-miterlimit="10"/>
<path opacity="0.7" d="M1181.48 282.538C680.34 508.452 157.542 -452.967 -327.086 -97.2888" stroke="#363A49" stroke-miterlimit="10"/>
<path opacity="0.7" d="M1181.55 282.987C669.901 514.048 151.258 -448.579 -329.642 -95.0432" stroke="#363A49" stroke-miterlimit="10"/>
<path opacity="0.69" d="M1181.62 283.402C659.463 519.68 144.938 -444.191 -332.163 -92.7975" stroke="#363A49" stroke-miterlimit="10"/>
<path opacity="0.68" d="M1181.69 283.851C649.023 525.277 138.617 -439.804 -334.72 -90.5518" stroke="#363A49" stroke-miterlimit="10"/>
<path opacity="0.68" d="M1181.76 284.266C638.584 530.908 132.333 -435.45 -337.241 -88.3062" stroke="#363A49" stroke-miterlimit="10"/>
<path opacity="0.67" d="M1181.83 284.715C628.146 536.505 126.013 -431.063 -339.797 -86.0604" stroke="#363A49" stroke-miterlimit="10"/>
<path opacity="0.67" d="M1181.9 285.164C617.742 542.136 119.692 -426.675 -342.319 -83.8148" stroke="#363A49" stroke-miterlimit="10"/>
<path opacity="0.66" d="M1182.01 285.579C607.304 547.733 113.373 -422.287 -344.874 -81.5692" stroke="#363A49" stroke-miterlimit="10"/>
<path opacity="0.66" d="M1182.08 286.028C596.864 553.365 107.087 -417.9 -347.396 -79.3236" stroke="#363A49" stroke-miterlimit="10"/>
<path opacity="0.65" d="M1182.15 286.442C586.425 558.962 100.767 -413.547 -349.952 -77.0779" stroke="#363A49" stroke-miterlimit="10"/>
<path opacity="0.65" d="M1182.22 286.891C575.987 564.593 94.4477 -409.159 -352.473 -74.8322" stroke="#363A49" stroke-miterlimit="10"/>
<path opacity="0.64" d="M1182.29 287.306C565.547 570.19 88.1622 -404.771 -355.03 -72.5866" stroke="#363A49" stroke-miterlimit="10"/>
<path opacity="0.63" d="M1182.37 287.755C555.109 575.821 81.8425 -400.383 -357.55 -70.3408" stroke="#363A49" stroke-miterlimit="10"/>
<path opacity="0.63" d="M1182.44 288.17C544.67 581.418 75.5224 -396.03 -360.107 -68.0951" stroke="#363A49" stroke-miterlimit="10"/>
<path opacity="0.62" d="M1182.54 288.619C534.231 587.05 69.2024 -391.643 -362.628 -65.8496" stroke="#363A49" stroke-miterlimit="10"/>
<path opacity="0.62" d="M1182.62 289.034C523.792 592.646 62.9177 -387.255 -365.184 -63.604" stroke="#363A49" stroke-miterlimit="10"/>
<path opacity="0.61" d="M1182.69 289.483C513.353 598.278 56.5971 -382.867 -367.705 -61.3582" stroke="#363A49" stroke-miterlimit="10"/>
<path opacity="0.61" d="M1182.76 289.897C502.914 603.875 50.277 -378.514 -370.262 -59.1126" stroke="#363A49" stroke-miterlimit="10"/>
<path opacity="0.6" d="M1182.83 290.347C492.475 609.506 43.9573 -374.126 -372.782 -56.8668" stroke="#363A49" stroke-miterlimit="10"/>
<path opacity="0.6" d="M1182.9 290.761C482.037 615.103 37.6729 -369.739 -375.303 -54.6211" stroke="#363A49" stroke-miterlimit="10"/>
<path opacity="0.59" d="M1183.01 291.21C471.598 620.734 31.3527 -365.351 -377.86 -52.3757" stroke="#363A49" stroke-miterlimit="10"/>
<path opacity="0.59" d="M1183.08 291.625C461.158 626.331 25.0317 -360.998 -380.382 -50.1299" stroke="#363A49" stroke-miterlimit="10"/>
<path opacity="0.58" d="M1183.15 292.074C450.719 631.963 18.7473 -356.611 -382.938 -47.8843" stroke="#363A49" stroke-miterlimit="10"/>
<path opacity="0.57" d="M1183.22 292.523C440.281 637.56 12.4277 -352.223 -385.458 -45.6385" stroke="#363A49" stroke-miterlimit="10"/>
<path opacity="0.57" d="M1183.29 292.938C429.841 643.191 6.10673 -347.835 -388.015 -43.3928" stroke="#363A49" stroke-miterlimit="10"/>
<path opacity="0.56" d="M1183.36 293.387C419.403 648.788 -0.213081 -343.447 -390.536 -41.1473" stroke="#363A49" stroke-miterlimit="10"/>
<path opacity="0.56" d="M1183.43 293.801C408.964 654.42 -6.49754 -339.094 -393.092 -38.9016" stroke="#363A49" stroke-miterlimit="10"/>
<path opacity="0.55" d="M1183.54 294.25C398.525 660.016 -12.8176 -334.707 -395.613 -36.656" stroke="#363A49" stroke-miterlimit="10"/>
<path opacity="0.55" d="M1183.61 294.665C388.086 665.648 -19.1376 -330.319 -398.169 -34.4102" stroke="#363A49" stroke-miterlimit="10"/>
<path opacity="0.54" d="M1183.68 295.114C377.647 671.245 -25.423 -325.931 -400.691 -32.1646" stroke="#363A49" stroke-miterlimit="10"/>
<path opacity="0.54" d="M1183.75 295.529C367.208 676.876 -31.7431 -321.578 -403.248 -29.9189" stroke="#363A49" stroke-miterlimit="10"/>
<path opacity="0.53" d="M1183.82 295.978C356.769 682.473 -38.0629 -317.191 -405.768 -27.6734" stroke="#363A49" stroke-miterlimit="10"/>
<path opacity="0.53" d="M1183.89 296.393C346.331 688.104 -44.3826 -312.803 -408.324 -25.4276" stroke="#363A49" stroke-miterlimit="10"/>
<path opacity="0.52" d="M1183.96 296.842C335.891 693.701 -50.6679 -308.415 -410.846 -23.1819" stroke="#363A49" stroke-miterlimit="10"/>
<g opacity="0.11">
<path d="M261.434 -367.942C708.354 -194.889 794.954 342.446 1225.47 556.44" stroke="#209BD7" stroke-miterlimit="10"/>
<path d="M257.173 -366.18C705.407 -193.783 793.605 343.793 1225.51 556.854" stroke="#209BD7" stroke-miterlimit="10"/>
<path d="M252.912 -364.384C702.424 -192.643 792.256 345.141 1225.51 557.269" stroke="#209BD7" stroke-miterlimit="10"/>
<path d="M248.651 -362.622C699.442 -191.503 790.906 346.488 1225.51 557.684" stroke="#209BD7" stroke-miterlimit="10"/>
<path d="M244.355 -360.86C696.459 -190.397 789.557 347.835 1225.51 558.098" stroke="#209BD7" stroke-miterlimit="10"/>
<path d="M240.094 -359.098C693.512 -189.257 788.208 349.217 1225.51 558.513" stroke="#209BD7" stroke-miterlimit="10"/>
<path d="M235.833 -357.336C690.529 -188.151 786.859 350.565 1225.51 558.893" stroke="#209BD7" stroke-miterlimit="10"/>
<path d="M231.573 -355.54C687.547 -187.012 785.545 351.912 1225.51 559.307" stroke="#209BD7" stroke-miterlimit="10"/>
<path d="M227.312 -353.777C684.564 -185.906 784.196 353.26 1225.51 559.722" stroke="#209BD7" stroke-miterlimit="10"/>
<path d="M223.016 -352.015C681.617 -184.766 782.846 354.607 1225.51 560.137" stroke="#209BD7" stroke-miterlimit="10"/>
<path d="M218.755 -350.253C678.635 -183.66 781.497 355.989 1225.51 560.551" stroke="#209BD7" stroke-miterlimit="10"/>
<path d="M214.494 -348.491C675.652 -182.52 780.148 357.336 1225.51 560.966" stroke="#209BD7" stroke-miterlimit="10"/>
<path d="M210.233 -346.729C672.67 -181.38 778.799 358.684 1225.51 561.38" stroke="#209BD7" stroke-miterlimit="10"/>
<path d="M205.972 -344.933C669.723 -180.275 777.449 360.031 1225.51 561.76" stroke="#209BD7" stroke-miterlimit="10"/>
<path d="M201.711 -343.171C666.74 -179.134 776.136 361.378 1225.51 562.175" stroke="#209BD7" stroke-miterlimit="10"/>
<path d="M197.415 -341.409C663.758 -178.029 774.786 362.726 1225.51 562.589" stroke="#209BD7" stroke-miterlimit="10"/>
<path d="M193.154 -339.647C660.811 -176.889 773.437 364.108 1225.51 563.004" stroke="#209BD7" stroke-miterlimit="10"/>
<path d="M188.894 -337.885C657.828 -175.783 772.088 365.455 1225.51 563.419" stroke="#209BD7" stroke-miterlimit="10"/>
<path d="M184.633 -336.123C654.846 -174.643 770.739 366.802 1225.51 563.833" stroke="#209BD7" stroke-miterlimit="10"/>
<path d="M180.372 -334.327C651.863 -173.503 769.389 368.15 1225.51 564.213" stroke="#209BD7" stroke-miterlimit="10"/>
<path d="M176.111 -332.565C648.916 -172.397 768.04 369.497 1225.51 564.628" stroke="#209BD7" stroke-miterlimit="10"/>
<path d="M171.815 -330.803C645.933 -171.257 766.691 370.879 1225.51 565.042" stroke="#209BD7" stroke-miterlimit="10"/>
<path d="M167.554 -329.041C642.951 -170.152 765.377 372.226 1225.51 565.457" stroke="#209BD7" stroke-miterlimit="10"/>
<path d="M163.294 -327.279C639.969 -169.012 764.029 373.574 1225.54 565.871" stroke="#209BD7" stroke-miterlimit="10"/>
<path d="M159.033 -325.517C637.022 -167.906 762.679 374.921 1225.54 566.286" stroke="#209BD7" stroke-miterlimit="10"/>
<path d="M154.773 -323.72C634.039 -166.766 761.33 376.269 1225.54 566.7" stroke="#209BD7" stroke-miterlimit="10"/>
<path d="M150.512 -321.958C631.057 -165.66 759.981 377.651 1225.54 567.081" stroke="#209BD7" stroke-miterlimit="10"/>
<path d="M146.216 -320.196C628.074 -164.52 758.632 378.998 1225.54 567.495" stroke="#209BD7" stroke-miterlimit="10"/>
<path d="M141.955 -318.434C625.127 -163.38 757.282 380.345 1225.54 567.91" stroke="#209BD7" stroke-miterlimit="10"/>
<path d="M137.694 -316.672C622.145 -162.275 755.969 381.693 1225.54 568.324" stroke="#209BD7" stroke-miterlimit="10"/>
<path d="M133.433 -314.91C619.162 -161.135 754.619 383.04 1225.54 568.739" stroke="#209BD7" stroke-miterlimit="10"/>
<path d="M129.172 -313.114C616.215 -160.029 753.27 384.422 1225.54 569.154" stroke="#209BD7" stroke-miterlimit="10"/>
<path d="M124.912 -311.352C613.233 -158.889 751.921 385.77 1225.54 569.534" stroke="#209BD7" stroke-miterlimit="10"/>
<path d="M120.615 -309.59C610.25 -157.783 750.572 387.117 1225.54 569.948" stroke="#209BD7" stroke-miterlimit="10"/>
<path d="M116.355 -307.828C607.267 -156.643 749.222 388.464 1225.54 570.363" stroke="#209BD7" stroke-miterlimit="10"/>
<path d="M112.094 -306.066C604.32 -155.503 747.873 389.812 1225.54 570.777" stroke="#209BD7" stroke-miterlimit="10"/>
<path d="M107.833 -304.304C601.338 -154.398 746.559 391.194 1225.54 571.192" stroke="#209BD7" stroke-miterlimit="10"/>
<path d="M103.572 -302.507C598.355 -153.257 745.21 392.541 1225.54 571.606" stroke="#209BD7" stroke-miterlimit="10"/>
<path d="M99.276 -300.745C595.373 -152.152 743.861 393.889 1225.54 572.021" stroke="#209BD7" stroke-miterlimit="10"/>
<path d="M95.0152 -298.983C592.426 -151.012 742.512 395.236 1225.54 572.401" stroke="#209BD7" stroke-miterlimit="10"/>
<path d="M90.7544 -297.221C589.443 -149.906 741.162 396.583 1225.54 572.816" stroke="#209BD7" stroke-miterlimit="10"/>
<path d="M86.4936 -295.459C586.461 -148.766 739.813 397.965 1225.54 573.23" stroke="#209BD7" stroke-miterlimit="10"/>
<path d="M82.2327 -293.698C583.478 -147.661 738.464 399.313 1225.54 573.645" stroke="#209BD7" stroke-miterlimit="10"/>
<path d="M77.9723 -291.901C580.531 -146.52 737.115 400.66 1225.54 574.059" stroke="#209BD7" stroke-miterlimit="10"/>
<path d="M73.6757 -290.139C577.548 -145.38 735.801 402.008 1225.54 574.474" stroke="#209BD7" stroke-miterlimit="10"/>
<path d="M69.4146 -288.377C574.566 -144.275 734.451 403.355 1225.58 574.889" stroke="#209BD7" stroke-miterlimit="10"/>
<path d="M65.1538 -286.615C571.583 -143.135 733.102 404.737 1225.58 575.269" stroke="#209BD7" stroke-miterlimit="10"/>
<path d="M60.8931 -284.853C568.636 -142.029 731.753 406.084 1225.58 575.683" stroke="#209BD7" stroke-miterlimit="10"/>
<path d="M56.6323 -283.056C565.653 -140.889 730.404 407.432 1225.58 576.098" stroke="#209BD7" stroke-miterlimit="10"/>
<path d="M52.3714 -281.294C562.671 -139.783 729.054 408.779 1225.58 576.512" stroke="#209BD7" stroke-miterlimit="10"/>
<path d="M48.0752 -279.532C559.724 -138.643 727.705 410.126 1225.58 576.927" stroke="#209BD7" stroke-miterlimit="10"/>
<path d="M43.8144 -277.771C556.741 -137.503 726.391 411.508 1225.58 577.342" stroke="#209BD7" stroke-miterlimit="10"/>
<path d="M39.5536 -276.009C553.759 -136.398 725.042 412.856 1225.58 577.722" stroke="#209BD7" stroke-miterlimit="10"/>
<path d="M35.2928 -274.247C550.776 -135.258 723.693 414.203 1225.58 578.136" stroke="#209BD7" stroke-miterlimit="10"/>
<path d="M31.0321 -272.45C547.829 -134.152 722.344 415.55 1225.58 578.551" stroke="#209BD7" stroke-miterlimit="10"/>
<path d="M26.7712 -270.688C544.847 -133.012 720.994 416.898 1225.58 578.965" stroke="#209BD7" stroke-miterlimit="10"/>
<path d="M22.4751 -268.926C541.864 -131.906 719.645 418.28 1225.58 579.38" stroke="#209BD7" stroke-miterlimit="10"/>
<path d="M18.2142 -267.164C538.881 -130.766 718.296 419.627 1225.58 579.795" stroke="#209BD7" stroke-miterlimit="10"/>
<path d="M13.9535 -265.402C535.934 -129.661 716.982 420.975 1225.58 580.209" stroke="#209BD7" stroke-miterlimit="10"/>
<path d="M9.69276 -263.64C532.952 -128.521 715.633 422.322 1225.58 580.589" stroke="#209BD7" stroke-miterlimit="10"/>
<path d="M5.43185 -261.844C529.969 -127.381 714.284 423.669 1225.58 581.004" stroke="#209BD7" stroke-miterlimit="10"/>
<path d="M1.13576 -260.082C526.987 -126.275 712.934 425.017 1225.58 581.418" stroke="#209BD7" stroke-miterlimit="10"/>
<path d="M-3.12523 -258.32C524.04 -125.135 711.585 426.399 1225.58 581.833" stroke="#209BD7" stroke-miterlimit="10"/>
<path d="M-7.38602 -256.558C521.057 -124.029 710.236 427.746 1225.58 582.248" stroke="#209BD7" stroke-miterlimit="10"/>
<path d="M-11.6466 -254.796C518.075 -122.889 708.887 429.094 1225.58 582.662" stroke="#209BD7" stroke-miterlimit="10"/>
<path d="M-15.9075 -253.034C515.128 -121.784 707.537 430.441 1225.58 583.042" stroke="#209BD7" stroke-miterlimit="10"/>
<path d="M-20.1682 -251.237C512.145 -120.644 706.224 431.788 1225.58 583.457" stroke="#209BD7" stroke-miterlimit="10"/>
<path d="M-24.4638 -249.475C509.163 -119.504 704.875 433.17 1225.61 583.871" stroke="#209BD7" stroke-miterlimit="10"/>
<path d="M-28.7246 -247.713C506.181 -118.398 703.526 434.518 1225.61 584.286" stroke="#209BD7" stroke-miterlimit="10"/>
<path d="M-32.9853 -245.951C503.234 -117.258 702.177 435.865 1225.61 584.7" stroke="#209BD7" stroke-miterlimit="10"/>
<path d="M-37.2461 -244.189C500.251 -116.152 700.827 437.212 1225.61 585.115" stroke="#209BD7" stroke-miterlimit="10"/>
<path d="M-41.507 -242.427C497.269 -115.012 699.478 438.56 1225.61 585.53" stroke="#209BD7" stroke-miterlimit="10"/>
<path d="M-45.7678 -240.631C494.286 -113.907 698.129 439.942 1225.61 585.909" stroke="#209BD7" stroke-miterlimit="10"/>
<path d="M-50.0641 -238.869C491.339 -112.767 696.815 441.289 1225.61 586.324" stroke="#209BD7" stroke-miterlimit="10"/>
<path d="M-54.3248 -237.107C488.356 -111.661 695.466 442.637 1225.61 586.739" stroke="#209BD7" stroke-miterlimit="10"/>
<path d="M-58.5856 -235.345C485.374 -110.521 694.117 443.984 1225.61 587.153" stroke="#209BD7" stroke-miterlimit="10"/>
<path d="M-62.8465 -233.583C482.391 -109.381 692.767 445.331 1225.61 587.568" stroke="#209BD7" stroke-miterlimit="10"/>
<path d="M-67.1073 -231.821C479.444 -108.275 691.418 446.713 1225.61 587.982" stroke="#209BD7" stroke-miterlimit="10"/>
<path d="M-71.3679 -230.024C476.462 -107.135 690.069 448.061 1225.61 588.397" stroke="#209BD7" stroke-miterlimit="10"/>
<path d="M-75.6642 -228.262C473.479 -106.03 688.72 449.408 1225.61 588.777" stroke="#209BD7" stroke-miterlimit="10"/>
<path d="M-79.925 -226.5C470.532 -104.889 687.406 450.755 1225.61 589.192" stroke="#209BD7" stroke-miterlimit="10"/>
<path d="M-84.1856 -224.739C467.55 -103.784 686.057 452.103 1225.61 589.606" stroke="#209BD7" stroke-miterlimit="10"/>
<path d="M-88.4465 -222.977C464.567 -102.644 684.707 453.485 1225.61 590.021" stroke="#209BD7" stroke-miterlimit="10"/>
<path d="M-92.7074 -221.215C461.585 -101.504 683.358 454.832 1225.61 590.435" stroke="#209BD7" stroke-miterlimit="10"/>
<path d="M-96.968 -219.418C458.638 -100.398 682.009 456.18 1225.61 590.85" stroke="#209BD7" stroke-miterlimit="10"/>
<path d="M-101.264 -217.656C455.655 -99.258 680.66 457.527 1225.61 591.23" stroke="#209BD7" stroke-miterlimit="10"/>
</g>
</g>
</g>
</g>
<defs>
<clipPath id="clip0_62_14">
<rect width="891" height="549" fill="white"/>
</clipPath>
<clipPath id="clip1_62_14">
<rect width="891" height="561" fill="white" transform="matrix(-1 0 0 1 891 0)"/>
</clipPath>
</defs>
</svg>
