<svg id="Page-2" xmlns="http://www.w3.org/2000/svg" width="634.802" height="229.623" viewBox="0 0 634.802 229.623">
  <g id="_1.0_Home" data-name="1.0_Home">
    <g id="E-ZONE-01">
      <g id="Group-30" transform="translate(192.947)">
        <rect id="Rectangle" width="98.191" height="15.885" transform="translate(147.32 137.672)" fill="#3f4254"/>
        <path id="Path" d="M116.191,48.815V62.392c0,24.708-21.766,45.295-49.708,48.4a67.57,67.57,0,0,1-7.318.4H24.137V91.272H59.7a41.053,41.053,0,0,0,6.8-.562c16.141-2.738,28.4-15.041,28.4-29.572V50.359c0-16.576-15.844-30.143-35.16-30.143H24.137V0H59.165C90.524,0,116.191,21.971,116.191,48.815Z" transform="translate(123.184)" fill="#3f4254"/>
        <path id="Path-2" data-name="Path" d="M141.15,134.8v18.76H59.094C26.593,153.557,0,131.636,0,104.836V92.663C0,71.419,16.753,53.238,39.85,46.621,40.609,20.881,66.387,0,97.793,0H141.15V19.85H98.028c-17.468,0-32.121,10.455-35.215,24.14h56.458l-.078,20.036H62.578C65.047,78.31,80.046,89.384,98.028,89.384H141.15V108.89H97.793c-29.228,0-53.61-18.073-57.429-41.33-14.14,5.694-23.946,17.671-23.946,31.473v.8c0,19.251,19.11,35,42.441,35Z" fill="#0095e8"/>
      </g>
      <g id="ENGINEERINGZONECO.LTD." transform="translate(0 195.149)">
        <path id="Path_1" data-name="Path 1" d="M23.876,65.879V60.262H6.322V51.188H22.1V45.571H6.322V38.181H23.3v-5.64H0V65.879Zm11.337,0V44.139l12.643,21.74H54.23V32.541h-5.9V54.8L35.474,32.541H29.309V65.879Zm40.516.569a18.893,18.893,0,0,0,3.814-.387,22.969,22.969,0,0,0,3.788-1.137,16.543,16.543,0,0,0,5.851-3.638h0V48H75.52v5.617h7.262v4.23A11.788,11.788,0,0,1,79.2,59.943a10.982,10.982,0,0,1-3.84.75,7.871,7.871,0,0,1-6.3-2.706q-2.717-3.138-2.717-9.164,0-5.617,2.521-8.357a8.482,8.482,0,0,1,6.544-2.74,7.36,7.36,0,0,1,4.493,1.387,7.033,7.033,0,0,1,2.586,3.911h0l6.269-1.251a11.643,11.643,0,0,0-4.376-7.334q-3.357-2.467-8.973-2.467a15.8,15.8,0,0,0-8.007,1.944,14.441,14.441,0,0,0-5.486,5.822,19.533,19.533,0,0,0-2.1,9.426A19.849,19.849,0,0,0,61.91,58.5a14.066,14.066,0,0,0,5.656,5.969A16.543,16.543,0,0,0,75.729,66.447Zm25.443-.569V32.541H94.851V65.879Zm12.042,0V44.139l12.643,21.74h6.374V32.541h-5.9V54.8L113.476,32.541h-6.165V65.879Zm49.58,0V60.262H145.241V51.188h15.778V45.571H145.241V38.181h16.98v-5.64h-23.3V65.879Zm29.257,0V60.262H174.5V51.188h15.778V45.571H174.5V38.181h16.98v-5.64h-23.3V65.879Zm11.7,0V51.962h1.306a9.924,9.924,0,0,1,3.187.375,4.837,4.837,0,0,1,1.907,1.364,45.691,45.691,0,0,1,3.344,4.923h0l4.6,7.254h7.549l-3.814-6.5a40.476,40.476,0,0,0-3.644-5.446,14.407,14.407,0,0,0-3.357-2.763,9.958,9.958,0,0,0,6.139-3,9.077,9.077,0,0,0,2.142-6.3,9.739,9.739,0,0,0-1.4-5.321,7.633,7.633,0,0,0-3.6-3.1,21.26,21.26,0,0,0-7.327-.9H197.433V65.879Zm4.7-19.238h-4.7V38.181h4.963q2.168,0,3.448.068a9.994,9.994,0,0,1,1.7.182,3.837,3.837,0,0,1,2.011,1.364,4.15,4.15,0,0,1,.705,2.524,4.42,4.42,0,0,1-.731,2.649,3.444,3.444,0,0,1-1.868,1.342,26.88,26.88,0,0,1-5.525.33Zm26.749,19.238V32.541h-6.322V65.879Zm12.042,0V44.139l12.643,21.74h6.374V32.541h-5.9V54.8L247.51,32.541h-6.165V65.879Zm40.516.569a18.893,18.893,0,0,0,3.814-.387,22.97,22.97,0,0,0,3.788-1.137,16.543,16.543,0,0,0,5.851-3.638h0V48H287.556v5.617h7.262v4.23a11.788,11.788,0,0,1-3.579,2.092,10.982,10.982,0,0,1-3.84.75,7.871,7.871,0,0,1-6.3-2.706q-2.717-3.138-2.717-9.164,0-5.617,2.521-8.357a8.482,8.482,0,0,1,6.544-2.74,7.36,7.36,0,0,1,4.493,1.387,7.032,7.032,0,0,1,2.586,3.911h0l6.269-1.251a11.643,11.643,0,0,0-4.375-7.334q-3.357-2.467-8.973-2.467a15.8,15.8,0,0,0-8.007,1.944,14.44,14.44,0,0,0-5.486,5.822,19.533,19.533,0,0,0-2.1,9.426,19.849,19.849,0,0,0,2.09,9.335,14.066,14.066,0,0,0,5.656,5.969A16.543,16.543,0,0,0,287.765,66.447Zm54.309-.569V60.262H324.206l17.189-22.49v-5.23H318.406v5.64h14.655L316.552,59.807v6.072Zm18,.569q6.792,0,10.71-4.162,4.493-4.73,4.493-13.076,0-8.255-4.232-12.746a14.422,14.422,0,0,0-11-4.491,15.571,15.571,0,0,0-7.915,1.887,13.834,13.834,0,0,0-5.29,5.742,21.009,21.009,0,0,0-2.025,9.813,22.163,22.163,0,0,0,1.123,7.345,15.351,15.351,0,0,0,3.37,5.571Q353.254,66.447,360.072,66.447Zm0-5.753a7.9,7.9,0,0,1-6.217-2.9q-2.508-2.9-2.508-8.607,0-5.867,2.456-8.664a7.97,7.97,0,0,1,6.269-2.8,7.852,7.852,0,0,1,6.269,2.774q2.377,2.774,2.377,8.573,0,5.89-2.456,8.755A7.808,7.808,0,0,1,360.072,60.694Zm26.122,5.185V44.139l12.643,21.74h6.374V32.541h-5.9V54.8L386.455,32.541H380.29V65.879Zm49.58,0V60.262H418.22V51.188H434V45.571H418.22V38.181H435.2v-5.64H411.9V65.879Zm30.8.569a13.119,13.119,0,0,0,8.242-2.581q3.357-2.581,4.767-8.175h0l-6.139-2.069a10.47,10.47,0,0,1-2.665,5.389,6.1,6.1,0,0,1-4.31,1.683,6.79,6.79,0,0,1-5.577-2.672q-2.129-2.672-2.129-8.948,0-6.072,2.207-8.71a7.044,7.044,0,0,1,5.655-2.638,6.548,6.548,0,0,1,4.219,1.455,6.961,6.961,0,0,1,2.39,4.139h0l6.269-1.592a13.423,13.423,0,0,0-3.709-6.617,12.976,12.976,0,0,0-8.829-3.138,13.373,13.373,0,0,0-10.318,4.184q-4.415,4.821-4.415,13.349,0,8.073,4.389,12.826A12.991,12.991,0,0,0,466.573,66.447Zm32.418,0q6.792,0,10.71-4.162,4.493-4.73,4.493-13.076,0-8.255-4.232-12.746a14.422,14.422,0,0,0-11-4.491,15.57,15.57,0,0,0-7.915,1.887,13.834,13.834,0,0,0-5.29,5.742,21.009,21.009,0,0,0-2.024,9.813,22.163,22.163,0,0,0,1.123,7.345,15.351,15.351,0,0,0,3.37,5.571Q492.173,66.447,498.991,66.447Zm0-5.753a7.9,7.9,0,0,1-6.217-2.9q-2.508-2.9-2.508-8.607,0-5.867,2.455-8.664a7.97,7.97,0,0,1,6.269-2.8A7.852,7.852,0,0,1,505.26,40.5q2.377,2.774,2.377,8.573,0,5.89-2.456,8.755A7.808,7.808,0,0,1,498.991,60.694Zm26.149,5.185v-6.39h-6.034v6.39Zm40.673,0V60.262H550.034V32.814h-6.322V65.879Zm17.92,0v-27.7h9.3v-5.64H568.085v5.64h9.326v27.7Zm25.286,0a17.494,17.494,0,0,0,6.269-.955,11.252,11.252,0,0,0,4.193-2.808,13.881,13.881,0,0,0,2.834-5.037,18.548,18.548,0,0,0,.862-3.5,28.136,28.136,0,0,0,.261-4.025,25.471,25.471,0,0,0-1.1-8.039,14.346,14.346,0,0,0-2.926-5.242,10.685,10.685,0,0,0-4.127-2.865,11.487,11.487,0,0,0-2.769-.659,31.129,31.129,0,0,0-3.84-.2H597.107V65.879Zm-.836-5.617h-4.754V38.181H606.3a29.794,29.794,0,0,1,5.146.3,6.172,6.172,0,0,1,3.043,1.637,7.271,7.271,0,0,1,1.816,3.331,23.283,23.283,0,0,1,.575,5.856,24.2,24.2,0,0,1-.575,5.753,8.99,8.99,0,0,1-1.515,3.241,5.066,5.066,0,0,1-2.194,1.489,14.421,14.421,0,0,1-4.415.478ZM634.8,65.879v-6.39h-6.034v6.39Z" transform="translate(0 -31.973)" fill="#3f4254"/>
        <path id="Path_2" data-name="Path 2" d="M23.876,65.879V60.262H6.322V51.188H22.1V45.571H6.322V38.181H23.3v-5.64H0V65.879Zm11.337,0V44.139l12.643,21.74H54.23V32.541h-5.9V54.8L35.474,32.541H29.309V65.879Zm40.516.569a18.893,18.893,0,0,0,3.814-.387,22.969,22.969,0,0,0,3.788-1.137,16.543,16.543,0,0,0,5.851-3.638h0V48H75.52v5.617h7.262v4.23A11.788,11.788,0,0,1,79.2,59.943a10.982,10.982,0,0,1-3.84.75,7.871,7.871,0,0,1-6.3-2.706q-2.717-3.138-2.717-9.164,0-5.617,2.521-8.357a8.482,8.482,0,0,1,6.544-2.74,7.36,7.36,0,0,1,4.493,1.387,7.033,7.033,0,0,1,2.586,3.911h0l6.269-1.251a11.643,11.643,0,0,0-4.376-7.334q-3.357-2.467-8.973-2.467a15.8,15.8,0,0,0-8.007,1.944,14.441,14.441,0,0,0-5.486,5.822,19.533,19.533,0,0,0-2.1,9.426A19.849,19.849,0,0,0,61.91,58.5a14.066,14.066,0,0,0,5.656,5.969A16.543,16.543,0,0,0,75.729,66.447Zm25.443-.569V32.541H94.851V65.879Zm12.042,0V44.139l12.643,21.74h6.374V32.541h-5.9V54.8L113.476,32.541h-6.165V65.879Zm49.58,0V60.262H145.241V51.188h15.778V45.571H145.241V38.181h16.98v-5.64h-23.3V65.879Zm29.257,0V60.262H174.5V51.188h15.778V45.571H174.5V38.181h16.98v-5.64h-23.3V65.879Zm11.7,0V51.962h1.306a9.924,9.924,0,0,1,3.187.375,4.837,4.837,0,0,1,1.907,1.364,45.691,45.691,0,0,1,3.344,4.923h0l4.6,7.254h7.549l-3.814-6.5a40.476,40.476,0,0,0-3.644-5.446,14.407,14.407,0,0,0-3.357-2.763,9.958,9.958,0,0,0,6.139-3,9.077,9.077,0,0,0,2.142-6.3,9.739,9.739,0,0,0-1.4-5.321,7.633,7.633,0,0,0-3.6-3.1,21.26,21.26,0,0,0-7.327-.9H197.433V65.879Zm4.7-19.238h-4.7V38.181h4.963q2.168,0,3.448.068a9.994,9.994,0,0,1,1.7.182,3.837,3.837,0,0,1,2.011,1.364,4.15,4.15,0,0,1,.705,2.524,4.42,4.42,0,0,1-.731,2.649,3.444,3.444,0,0,1-1.868,1.342,26.88,26.88,0,0,1-5.525.33Zm26.749,19.238V32.541h-6.322V65.879Zm12.042,0V44.139l12.643,21.74h6.374V32.541h-5.9V54.8L247.51,32.541h-6.165V65.879Zm40.516.569a18.893,18.893,0,0,0,3.814-.387,22.97,22.97,0,0,0,3.788-1.137,16.543,16.543,0,0,0,5.851-3.638h0V48H287.556v5.617h7.262v4.23a11.788,11.788,0,0,1-3.579,2.092,10.982,10.982,0,0,1-3.84.75,7.871,7.871,0,0,1-6.3-2.706q-2.717-3.138-2.717-9.164,0-5.617,2.521-8.357a8.482,8.482,0,0,1,6.544-2.74,7.36,7.36,0,0,1,4.493,1.387,7.032,7.032,0,0,1,2.586,3.911h0l6.269-1.251a11.643,11.643,0,0,0-4.375-7.334q-3.357-2.467-8.973-2.467a15.8,15.8,0,0,0-8.007,1.944,14.44,14.44,0,0,0-5.486,5.822,19.533,19.533,0,0,0-2.1,9.426,19.849,19.849,0,0,0,2.09,9.335,14.066,14.066,0,0,0,5.656,5.969A16.543,16.543,0,0,0,287.765,66.447Zm54.309-.569V60.262H324.206l17.189-22.49v-5.23H318.406v5.64h14.655L316.552,59.807v6.072Zm18,.569q6.792,0,10.71-4.162,4.493-4.73,4.493-13.076,0-8.255-4.232-12.746a14.422,14.422,0,0,0-11-4.491,15.571,15.571,0,0,0-7.915,1.887,13.834,13.834,0,0,0-5.29,5.742,21.009,21.009,0,0,0-2.025,9.813,22.163,22.163,0,0,0,1.123,7.345,15.351,15.351,0,0,0,3.37,5.571Q353.254,66.447,360.072,66.447Zm0-5.753a7.9,7.9,0,0,1-6.217-2.9q-2.508-2.9-2.508-8.607,0-5.867,2.456-8.664a7.97,7.97,0,0,1,6.269-2.8,7.852,7.852,0,0,1,6.269,2.774q2.377,2.774,2.377,8.573,0,5.89-2.456,8.755A7.808,7.808,0,0,1,360.072,60.694Zm26.122,5.185V44.139l12.643,21.74h6.374V32.541h-5.9V54.8L386.455,32.541H380.29V65.879Zm49.58,0V60.262H418.22V51.188H434V45.571H418.22V38.181H435.2v-5.64H411.9V65.879Zm30.8.569a13.119,13.119,0,0,0,8.242-2.581q3.357-2.581,4.767-8.175h0l-6.139-2.069a10.47,10.47,0,0,1-2.665,5.389,6.1,6.1,0,0,1-4.31,1.683,6.79,6.79,0,0,1-5.577-2.672q-2.129-2.672-2.129-8.948,0-6.072,2.207-8.71a7.044,7.044,0,0,1,5.655-2.638,6.548,6.548,0,0,1,4.219,1.455,6.961,6.961,0,0,1,2.39,4.139h0l6.269-1.592a13.423,13.423,0,0,0-3.709-6.617,12.976,12.976,0,0,0-8.829-3.138,13.373,13.373,0,0,0-10.318,4.184q-4.415,4.821-4.415,13.349,0,8.073,4.389,12.826A12.991,12.991,0,0,0,466.573,66.447Zm32.418,0q6.792,0,10.71-4.162,4.493-4.73,4.493-13.076,0-8.255-4.232-12.746a14.422,14.422,0,0,0-11-4.491,15.57,15.57,0,0,0-7.915,1.887,13.834,13.834,0,0,0-5.29,5.742,21.009,21.009,0,0,0-2.024,9.813,22.163,22.163,0,0,0,1.123,7.345,15.351,15.351,0,0,0,3.37,5.571Q492.173,66.447,498.991,66.447Zm0-5.753a7.9,7.9,0,0,1-6.217-2.9q-2.508-2.9-2.508-8.607,0-5.867,2.455-8.664a7.97,7.97,0,0,1,6.269-2.8A7.852,7.852,0,0,1,505.26,40.5q2.377,2.774,2.377,8.573,0,5.89-2.456,8.755A7.808,7.808,0,0,1,498.991,60.694Zm26.149,5.185v-6.39h-6.034v6.39Zm40.673,0V60.262H550.034V32.814h-6.322V65.879Zm17.92,0v-27.7h9.3v-5.64H568.085v5.64h9.326v27.7Zm25.286,0a17.494,17.494,0,0,0,6.269-.955,11.252,11.252,0,0,0,4.193-2.808,13.881,13.881,0,0,0,2.834-5.037,18.548,18.548,0,0,0,.862-3.5,28.136,28.136,0,0,0,.261-4.025,25.471,25.471,0,0,0-1.1-8.039,14.346,14.346,0,0,0-2.926-5.242,10.685,10.685,0,0,0-4.127-2.865,11.487,11.487,0,0,0-2.769-.659,31.129,31.129,0,0,0-3.84-.2H597.107V65.879Zm-.836-5.617h-4.754V38.181H606.3a29.794,29.794,0,0,1,5.146.3,6.172,6.172,0,0,1,3.043,1.637,7.271,7.271,0,0,1,1.816,3.331,23.283,23.283,0,0,1,.575,5.856,24.2,24.2,0,0,1-.575,5.753,8.99,8.99,0,0,1-1.515,3.241,5.066,5.066,0,0,1-2.194,1.489,14.421,14.421,0,0,1-4.415.478ZM634.8,65.879v-6.39h-6.034v6.39Z" transform="translate(0 -31.973)" fill="#3f4254"/>
      </g>
    </g>
  </g>
</svg>
