<svg id="Group-30" xmlns="http://www.w3.org/2000/svg" width="40.224" height="25.158" viewBox="0 0 40.224 25.158">
  <rect id="Rectangle" width="16.087" height="2.603" transform="translate(24.137 22.556)" fill="#3f4254"/>
  <path id="Path" d="M39.219,8v2.224c0,4.048-3.566,7.421-8.144,7.93a11.07,11.07,0,0,1-1.2.066H24.137V14.954h5.827a6.726,6.726,0,0,0,1.114-.092c2.644-.449,4.653-2.464,4.653-4.845V8.251c0-2.716-2.6-4.939-5.761-4.939H24.137V0h5.739C35.013,0,39.219,3.6,39.219,8Z" fill="#3f4254"/>
  <path id="Path-2" data-name="Path" d="M23.126,22.085v3.074H9.682C4.357,25.158,0,21.567,0,17.176V15.182C0,11.7,2.745,8.722,6.529,7.638,6.653,3.421,10.877,0,16.022,0h7.1V3.252H16.061c-2.862,0-5.263,1.713-5.77,3.955h9.25l-.013,3.283H10.253c.4,2.34,2.862,4.154,5.808,4.154h7.065v3.2h-7.1c-4.789,0-8.783-2.961-9.409-6.771A5.774,5.774,0,0,0,2.69,16.225v.13c0,3.154,3.131,5.734,6.953,5.734Z" fill="#0095e8"/>
</svg>
