<svg width="385" height="385" viewBox="0 0 385 385" fill="none" xmlns="http://www.w3.org/2000/svg">
<g clip-path="url(#clip0_41_3)">
<path d="M385 0H0V385H385V0Z" fill="white"/>
<path d="M122.499 23.3334C125.721 23.3334 128.333 25.9451 128.333 29.1667C128.333 32.3885 125.721 35 122.499 35C119.278 35 116.666 32.3885 116.666 29.1667C116.666 25.9451 119.278 23.3334 122.499 23.3334Z" fill="black"/>
<path d="M134.166 23.3334C137.388 23.3334 140 25.9451 140 29.1667C140 32.3885 137.388 35 134.166 35C130.945 35 128.333 32.3885 128.333 29.1667C128.333 25.9451 130.945 23.3334 134.166 23.3334Z" fill="black"/>
<path d="M169.166 23.3334C172.388 23.3334 175 25.9451 175 29.1667C175 32.3885 172.388 35 169.166 35C165.945 35 163.333 32.3885 163.333 29.1667C163.333 25.9451 165.945 23.3334 169.166 23.3334Z" fill="black"/>
<path d="M180.833 23.3334C184.055 23.3334 186.667 25.9451 186.667 29.1667C186.667 32.3885 184.055 35 180.833 35C177.612 35 175 32.3885 175 29.1667C175 25.9451 177.612 23.3334 180.833 23.3334Z" fill="black"/>
<path d="M192.499 23.3334C195.721 23.3334 198.333 25.9451 198.333 29.1667C198.333 32.3885 195.721 35 192.499 35C189.278 35 186.666 32.3885 186.666 29.1667C186.666 25.9451 189.278 23.3334 192.499 23.3334Z" fill="black"/>
<path d="M204.166 23.3334C207.388 23.3334 210 25.9451 210 29.1667C210 32.3885 207.388 35 204.166 35C200.945 35 198.333 32.3885 198.333 29.1667C198.333 25.9451 200.945 23.3334 204.166 23.3334Z" fill="black"/>
<path d="M227.499 23.3334C230.721 23.3334 233.333 25.9451 233.333 29.1667C233.333 32.3885 230.721 35 227.499 35C224.278 35 221.666 32.3885 221.666 29.1667C221.666 25.9451 224.278 23.3334 227.499 23.3334Z" fill="black"/>
<path d="M239.166 23.3334C242.388 23.3334 245 25.9451 245 29.1667C245 32.3885 242.388 35 239.166 35C235.945 35 233.333 32.3885 233.333 29.1667C233.333 25.9451 235.945 23.3334 239.166 23.3334Z" fill="black"/>
<path d="M122.499 35C125.721 35 128.333 37.6117 128.333 40.8333C128.333 44.0551 125.721 46.6667 122.499 46.6667C119.278 46.6667 116.666 44.0551 116.666 40.8333C116.666 37.6117 119.278 35 122.499 35Z" fill="black"/>
<path d="M134.166 35C137.388 35 140 37.6117 140 40.8333C140 44.0551 137.388 46.6667 134.166 46.6667C130.945 46.6667 128.333 44.0551 128.333 40.8333C128.333 37.6117 130.945 35 134.166 35Z" fill="black"/>
<path d="M180.833 35C184.055 35 186.667 37.6117 186.667 40.8333C186.667 44.0551 184.055 46.6667 180.833 46.6667C177.612 46.6667 175 44.0551 175 40.8333C175 37.6117 177.612 35 180.833 35Z" fill="black"/>
<path d="M192.499 35C195.721 35 198.333 37.6117 198.333 40.8333C198.333 44.0551 195.721 46.6667 192.499 46.6667C189.278 46.6667 186.666 44.0551 186.666 40.8333C186.666 37.6117 189.278 35 192.499 35Z" fill="black"/>
<path d="M204.166 35C207.388 35 210 37.6117 210 40.8333C210 44.0551 207.388 46.6667 204.166 46.6667C200.945 46.6667 198.333 44.0551 198.333 40.8333C198.333 37.6117 200.945 35 204.166 35Z" fill="black"/>
<path d="M250.833 35C254.055 35 256.667 37.6117 256.667 40.8333C256.667 44.0551 254.055 46.6667 250.833 46.6667C247.612 46.6667 245 44.0551 245 40.8333C245 37.6117 247.612 35 250.833 35Z" fill="black"/>
<path d="M262.499 35C265.721 35 268.333 37.6117 268.333 40.8333C268.333 44.0551 265.721 46.6667 262.499 46.6667C259.278 46.6667 256.666 44.0551 256.666 40.8333C256.666 37.6117 259.278 35 262.499 35Z" fill="black"/>
<path d="M122.499 46.6667C125.721 46.6667 128.333 49.2784 128.333 52.5001C128.333 55.7219 125.721 58.3334 122.499 58.3334C119.278 58.3334 116.666 55.7219 116.666 52.5001C116.666 49.2784 119.278 46.6667 122.499 46.6667Z" fill="black"/>
<path d="M169.166 46.6667C172.388 46.6667 175 49.2784 175 52.5001C175 55.7219 172.388 58.3334 169.166 58.3334C165.945 58.3334 163.333 55.7219 163.333 52.5001C163.333 49.2784 165.945 46.6667 169.166 46.6667Z" fill="black"/>
<path d="M180.833 46.6667C184.055 46.6667 186.667 49.2784 186.667 52.5001C186.667 55.7219 184.055 58.3334 180.833 58.3334C177.612 58.3334 175 55.7219 175 52.5001C175 49.2784 177.612 46.6667 180.833 46.6667Z" fill="black"/>
<path d="M192.499 46.6667C195.721 46.6667 198.333 49.2784 198.333 52.5001C198.333 55.7219 195.721 58.3334 192.499 58.3334C189.278 58.3334 186.666 55.7219 186.666 52.5001C186.666 49.2784 189.278 46.6667 192.499 46.6667Z" fill="black"/>
<path d="M262.499 46.6667C265.721 46.6667 268.333 49.2784 268.333 52.5001C268.333 55.7219 265.721 58.3334 262.499 58.3334C259.278 58.3334 256.666 55.7219 256.666 52.5001C256.666 49.2784 259.278 46.6667 262.499 46.6667Z" fill="black"/>
<path d="M145.833 58.3334C149.055 58.3334 151.667 60.9451 151.667 64.1667C151.667 67.3885 149.055 70 145.833 70C142.612 70 140 67.3885 140 64.1667C140 60.9451 142.612 58.3334 145.833 58.3334Z" fill="black"/>
<path d="M192.499 58.3334C195.721 58.3334 198.333 60.9451 198.333 64.1667C198.333 67.3885 195.721 70 192.499 70C189.278 70 186.666 67.3885 186.666 64.1667C186.666 60.9451 189.278 58.3334 192.499 58.3334Z" fill="black"/>
<path d="M204.166 58.3334C207.388 58.3334 210 60.9451 210 64.1667C210 67.3885 207.388 70 204.166 70C200.945 70 198.333 67.3885 198.333 64.1667C198.333 60.9451 200.945 58.3334 204.166 58.3334Z" fill="black"/>
<path d="M227.499 58.3334C230.721 58.3334 233.333 60.9451 233.333 64.1667C233.333 67.3885 230.721 70 227.499 70C224.278 70 221.666 67.3885 221.666 64.1667C221.666 60.9451 224.278 58.3334 227.499 58.3334Z" fill="black"/>
<path d="M239.166 58.3334C242.388 58.3334 245 60.9451 245 64.1667C245 67.3885 242.388 70 239.166 70C235.945 70 233.333 67.3885 233.333 64.1667C233.333 60.9451 235.945 58.3334 239.166 58.3334Z" fill="black"/>
<path d="M250.833 58.3334C254.055 58.3334 256.667 60.9451 256.667 64.1667C256.667 67.3885 254.055 70 250.833 70C247.612 70 245 67.3885 245 64.1667C245 60.9451 247.612 58.3334 250.833 58.3334Z" fill="black"/>
<path d="M262.499 58.3334C265.721 58.3334 268.333 60.9451 268.333 64.1667C268.333 67.3885 265.721 70 262.499 70C259.278 70 256.666 67.3885 256.666 64.1667C256.666 60.9451 259.278 58.3334 262.499 58.3334Z" fill="black"/>
<path d="M122.499 70C125.721 70 128.333 72.6117 128.333 75.8333C128.333 79.0551 125.721 81.6667 122.499 81.6667C119.278 81.6667 116.666 79.0551 116.666 75.8333C116.666 72.6117 119.278 70 122.499 70Z" fill="black"/>
<path d="M134.166 70C137.388 70 140 72.6117 140 75.8333C140 79.0551 137.388 81.6667 134.166 81.6667C130.945 81.6667 128.333 79.0551 128.333 75.8333C128.333 72.6117 130.945 70 134.166 70Z" fill="black"/>
<path d="M180.833 70C184.055 70 186.667 72.6117 186.667 75.8333C186.667 79.0551 184.055 81.6667 180.833 81.6667C177.612 81.6667 175 79.0551 175 75.8333C175 72.6117 177.612 70 180.833 70Z" fill="black"/>
<path d="M204.166 70C207.388 70 210 72.6117 210 75.8333C210 79.0551 207.388 81.6667 204.166 81.6667C200.945 81.6667 198.333 79.0551 198.333 75.8333C198.333 72.6117 200.945 70 204.166 70Z" fill="black"/>
<path d="M239.166 70C242.388 70 245 72.6117 245 75.8333C245 79.0551 242.388 81.6667 239.166 81.6667C235.945 81.6667 233.333 79.0551 233.333 75.8333C233.333 72.6117 235.945 70 239.166 70Z" fill="black"/>
<path d="M250.833 70C254.055 70 256.667 72.6117 256.667 75.8333C256.667 79.0551 254.055 81.6667 250.833 81.6667C247.612 81.6667 245 79.0551 245 75.8333C245 72.6117 247.612 70 250.833 70Z" fill="black"/>
<path d="M145.833 81.6667C149.055 81.6667 151.667 84.2784 151.667 87.5001C151.667 90.7219 149.055 93.3334 145.833 93.3334C142.612 93.3334 140 90.7219 140 87.5001C140 84.2784 142.612 81.6667 145.833 81.6667Z" fill="black"/>
<path d="M180.833 81.6667C184.055 81.6667 186.667 84.2784 186.667 87.5001C186.667 90.7219 184.055 93.3334 180.833 93.3334C177.612 93.3334 175 90.7219 175 87.5001C175 84.2784 177.612 81.6667 180.833 81.6667Z" fill="black"/>
<path d="M192.499 81.6667C195.721 81.6667 198.333 84.2784 198.333 87.5001C198.333 90.7219 195.721 93.3334 192.499 93.3334C189.278 93.3334 186.666 90.7219 186.666 87.5001C186.666 84.2784 189.278 81.6667 192.499 81.6667Z" fill="black"/>
<path d="M262.499 81.6667C265.721 81.6667 268.333 84.2784 268.333 87.5001C268.333 90.7219 265.721 93.3334 262.499 93.3334C259.278 93.3334 256.666 90.7219 256.666 87.5001C256.666 84.2784 259.278 81.6667 262.499 81.6667Z" fill="black"/>
<path d="M122.499 93.3334C125.721 93.3334 128.333 95.9451 128.333 99.1667C128.333 102.389 125.721 105 122.499 105C119.278 105 116.666 102.389 116.666 99.1667C116.666 95.9451 119.278 93.3334 122.499 93.3334Z" fill="black"/>
<path d="M145.833 93.3334C149.055 93.3334 151.667 95.9451 151.667 99.1667C151.667 102.389 149.055 105 145.833 105C142.612 105 140 102.389 140 99.1667C140 95.9451 142.612 93.3334 145.833 93.3334Z" fill="black"/>
<path d="M169.166 93.3334C172.388 93.3334 175 95.9451 175 99.1667C175 102.389 172.388 105 169.166 105C165.945 105 163.333 102.389 163.333 99.1667C163.333 95.9451 165.945 93.3334 169.166 93.3334Z" fill="black"/>
<path d="M192.499 93.3334C195.721 93.3334 198.333 95.9451 198.333 99.1667C198.333 102.389 195.721 105 192.499 105C189.278 105 186.666 102.389 186.666 99.1667C186.666 95.9451 189.278 93.3334 192.499 93.3334Z" fill="black"/>
<path d="M215.833 93.3334C219.055 93.3334 221.667 95.9451 221.667 99.1667C221.667 102.389 219.055 105 215.833 105C212.612 105 210 102.389 210 99.1667C210 95.9451 212.612 93.3334 215.833 93.3334Z" fill="black"/>
<path d="M239.166 93.3334C242.388 93.3334 245 95.9451 245 99.1667C245 102.389 242.388 105 239.166 105C235.945 105 233.333 102.389 233.333 99.1667C233.333 95.9451 235.945 93.3334 239.166 93.3334Z" fill="black"/>
<path d="M262.499 93.3334C265.721 93.3334 268.333 95.9451 268.333 99.1667C268.333 102.389 265.721 105 262.499 105C259.278 105 256.666 102.389 256.666 99.1667C256.666 95.9451 259.278 93.3334 262.499 93.3334Z" fill="black"/>
<path d="M145.833 105C149.055 105 151.667 107.612 151.667 110.833C151.667 114.055 149.055 116.667 145.833 116.667C142.612 116.667 140 114.055 140 110.833C140 107.612 142.612 105 145.833 105Z" fill="black"/>
<path d="M157.499 105C160.721 105 163.333 107.612 163.333 110.833C163.333 114.055 160.721 116.667 157.499 116.667C154.278 116.667 151.666 114.055 151.666 110.833C151.666 107.612 154.278 105 157.499 105Z" fill="black"/>
<path d="M192.499 105C195.721 105 198.333 107.612 198.333 110.833C198.333 114.055 195.721 116.667 192.499 116.667C189.278 116.667 186.666 114.055 186.666 110.833C186.666 107.612 189.278 105 192.499 105Z" fill="black"/>
<path d="M239.166 105C242.388 105 245 107.612 245 110.833C245 114.055 242.388 116.667 239.166 116.667C235.945 116.667 233.333 114.055 233.333 110.833C233.333 107.612 235.945 105 239.166 105Z" fill="black"/>
<path d="M29.1663 116.667C32.3881 116.667 34.9997 119.278 34.9997 122.5C34.9997 125.722 32.3881 128.333 29.1663 128.333C25.9447 128.333 23.333 125.722 23.333 122.5C23.333 119.278 25.9447 116.667 29.1663 116.667Z" fill="black"/>
<path d="M64.1663 116.667C67.3881 116.667 69.9997 119.278 69.9997 122.5C69.9997 125.722 67.3881 128.333 64.1663 128.333C60.9447 128.333 58.333 125.722 58.333 122.5C58.333 119.278 60.9447 116.667 64.1663 116.667Z" fill="black"/>
<path d="M75.8333 116.667C79.0551 116.667 81.6667 119.278 81.6667 122.5C81.6667 125.722 79.0551 128.333 75.8333 128.333C72.6117 128.333 70 125.722 70 122.5C70 119.278 72.6117 116.667 75.8333 116.667Z" fill="black"/>
<path d="M87.4993 116.667C90.7211 116.667 93.3327 119.278 93.3327 122.5C93.3327 125.722 90.7211 128.333 87.4993 128.333C84.2777 128.333 81.666 125.722 81.666 122.5C81.666 119.278 84.2777 116.667 87.4993 116.667Z" fill="black"/>
<path d="M99.1663 116.667C102.388 116.667 105 119.278 105 122.5C105 125.722 102.388 128.333 99.1663 128.333C95.9447 128.333 93.333 125.722 93.333 122.5C93.333 119.278 95.9447 116.667 99.1663 116.667Z" fill="black"/>
<path d="M110.833 116.667C114.055 116.667 116.667 119.278 116.667 122.5C116.667 125.722 114.055 128.333 110.833 128.333C107.612 128.333 105 125.722 105 122.5C105 119.278 107.612 116.667 110.833 116.667Z" fill="black"/>
<path d="M122.499 116.667C125.721 116.667 128.333 119.278 128.333 122.5C128.333 125.722 125.721 128.333 122.499 128.333C119.278 128.333 116.666 125.722 116.666 122.5C116.666 119.278 119.278 116.667 122.499 116.667Z" fill="black"/>
<path d="M134.166 116.667C137.388 116.667 140 119.278 140 122.5C140 125.722 137.388 128.333 134.166 128.333C130.945 128.333 128.333 125.722 128.333 122.5C128.333 119.278 130.945 116.667 134.166 116.667Z" fill="black"/>
<path d="M145.833 116.667C149.055 116.667 151.667 119.278 151.667 122.5C151.667 125.722 149.055 128.333 145.833 128.333C142.612 128.333 140 125.722 140 122.5C140 119.278 142.612 116.667 145.833 116.667Z" fill="black"/>
<path d="M157.499 116.667C160.721 116.667 163.333 119.278 163.333 122.5C163.333 125.722 160.721 128.333 157.499 128.333C154.278 128.333 151.666 125.722 151.666 122.5C151.666 119.278 154.278 116.667 157.499 116.667Z" fill="black"/>
<path d="M180.833 116.667C184.055 116.667 186.667 119.278 186.667 122.5C186.667 125.722 184.055 128.333 180.833 128.333C177.612 128.333 175 125.722 175 122.5C175 119.278 177.612 116.667 180.833 116.667Z" fill="black"/>
<path d="M192.499 116.667C195.721 116.667 198.333 119.278 198.333 122.5C198.333 125.722 195.721 128.333 192.499 128.333C189.278 128.333 186.666 125.722 186.666 122.5C186.666 119.278 189.278 116.667 192.499 116.667Z" fill="black"/>
<path d="M204.166 116.667C207.388 116.667 210 119.278 210 122.5C210 125.722 207.388 128.333 204.166 128.333C200.945 128.333 198.333 125.722 198.333 122.5C198.333 119.278 200.945 116.667 204.166 116.667Z" fill="black"/>
<path d="M215.833 116.667C219.055 116.667 221.667 119.278 221.667 122.5C221.667 125.722 219.055 128.333 215.833 128.333C212.612 128.333 210 125.722 210 122.5C210 119.278 212.612 116.667 215.833 116.667Z" fill="black"/>
<path d="M227.499 116.667C230.721 116.667 233.333 119.278 233.333 122.5C233.333 125.722 230.721 128.333 227.499 128.333C224.278 128.333 221.666 125.722 221.666 122.5C221.666 119.278 224.278 116.667 227.499 116.667Z" fill="black"/>
<path d="M274.166 116.667C277.388 116.667 280 119.278 280 122.5C280 125.722 277.388 128.333 274.166 128.333C270.945 128.333 268.333 125.722 268.333 122.5C268.333 119.278 270.945 116.667 274.166 116.667Z" fill="black"/>
<path d="M309.166 116.667C312.388 116.667 315 119.278 315 122.5C315 125.722 312.388 128.333 309.166 128.333C305.945 128.333 303.333 125.722 303.333 122.5C303.333 119.278 305.945 116.667 309.166 116.667Z" fill="black"/>
<path d="M332.499 116.667C335.721 116.667 338.333 119.278 338.333 122.5C338.333 125.722 335.721 128.333 332.499 128.333C329.278 128.333 326.666 125.722 326.666 122.5C326.666 119.278 329.278 116.667 332.499 116.667Z" fill="black"/>
<path d="M344.166 116.667C347.388 116.667 350 119.278 350 122.5C350 125.722 347.388 128.333 344.166 128.333C340.945 128.333 338.333 125.722 338.333 122.5C338.333 119.278 340.945 116.667 344.166 116.667Z" fill="black"/>
<path d="M355.833 116.667C359.055 116.667 361.667 119.278 361.667 122.5C361.667 125.722 359.055 128.333 355.833 128.333C352.612 128.333 350 125.722 350 122.5C350 119.278 352.612 116.667 355.833 116.667Z" fill="black"/>
<path d="M64.1663 128.333C67.3881 128.333 69.9997 130.945 69.9997 134.167C69.9997 137.389 67.3881 140 64.1663 140C60.9447 140 58.333 137.389 58.333 134.167C58.333 130.945 60.9447 128.333 64.1663 128.333Z" fill="black"/>
<path d="M110.833 128.333C114.055 128.333 116.667 130.945 116.667 134.167C116.667 137.389 114.055 140 110.833 140C107.612 140 105 137.389 105 134.167C105 130.945 107.612 128.333 110.833 128.333Z" fill="black"/>
<path d="M122.499 128.333C125.721 128.333 128.333 130.945 128.333 134.167C128.333 137.389 125.721 140 122.499 140C119.278 140 116.666 137.389 116.666 134.167C116.666 130.945 119.278 128.333 122.499 128.333Z" fill="black"/>
<path d="M145.833 128.333C149.055 128.333 151.667 130.945 151.667 134.167C151.667 137.389 149.055 140 145.833 140C142.612 140 140 137.389 140 134.167C140 130.945 142.612 128.333 145.833 128.333Z" fill="black"/>
<path d="M157.499 128.333C160.721 128.333 163.333 130.945 163.333 134.167C163.333 137.389 160.721 140 157.499 140C154.278 140 151.666 137.389 151.666 134.167C151.666 130.945 154.278 128.333 157.499 128.333Z" fill="black"/>
<path d="M169.166 128.333C172.388 128.333 175 130.945 175 134.167C175 137.389 172.388 140 169.166 140C165.945 140 163.333 137.389 163.333 134.167C163.333 130.945 165.945 128.333 169.166 128.333Z" fill="black"/>
<path d="M192.499 128.333C195.721 128.333 198.333 130.945 198.333 134.167C198.333 137.389 195.721 140 192.499 140C189.278 140 186.666 137.389 186.666 134.167C186.666 130.945 189.278 128.333 192.499 128.333Z" fill="black"/>
<path d="M239.166 128.333C242.388 128.333 245 130.945 245 134.167C245 137.389 242.388 140 239.166 140C235.945 140 233.333 137.389 233.333 134.167C233.333 130.945 235.945 128.333 239.166 128.333Z" fill="black"/>
<path d="M250.833 128.333C254.055 128.333 256.667 130.945 256.667 134.167C256.667 137.389 254.055 140 250.833 140C247.612 140 245 137.389 245 134.167C245 130.945 247.612 128.333 250.833 128.333Z" fill="black"/>
<path d="M297.499 128.333C300.721 128.333 303.333 130.945 303.333 134.167C303.333 137.389 300.721 140 297.499 140C294.278 140 291.666 137.389 291.666 134.167C291.666 130.945 294.278 128.333 297.499 128.333Z" fill="black"/>
<path d="M309.166 128.333C312.388 128.333 315 130.945 315 134.167C315 137.389 312.388 140 309.166 140C305.945 140 303.333 137.389 303.333 134.167C303.333 130.945 305.945 128.333 309.166 128.333Z" fill="black"/>
<path d="M332.499 128.333C335.721 128.333 338.333 130.945 338.333 134.167C338.333 137.389 335.721 140 332.499 140C329.278 140 326.666 137.389 326.666 134.167C326.666 130.945 329.278 128.333 332.499 128.333Z" fill="black"/>
<path d="M344.166 128.333C347.388 128.333 350 130.945 350 134.167C350 137.389 347.388 140 344.166 140C340.945 140 338.333 137.389 338.333 134.167C338.333 130.945 340.945 128.333 344.166 128.333Z" fill="black"/>
<path d="M29.1663 140C32.3881 140 34.9997 142.612 34.9997 145.833C34.9997 149.055 32.3881 151.667 29.1663 151.667C25.9447 151.667 23.333 149.055 23.333 145.833C23.333 142.612 25.9447 140 29.1663 140Z" fill="black"/>
<path d="M52.4993 140C55.7211 140 58.3327 142.612 58.3327 145.833C58.3327 149.055 55.7211 151.667 52.4993 151.667C49.2777 151.667 46.666 149.055 46.666 145.833C46.666 142.612 49.2777 140 52.4993 140Z" fill="black"/>
<path d="M75.8333 140C79.0551 140 81.6667 142.612 81.6667 145.833C81.6667 149.055 79.0551 151.667 75.8333 151.667C72.6117 151.667 70 149.055 70 145.833C70 142.612 72.6117 140 75.8333 140Z" fill="black"/>
<path d="M87.4993 140C90.7211 140 93.3327 142.612 93.3327 145.833C93.3327 149.055 90.7211 151.667 87.4993 151.667C84.2777 151.667 81.666 149.055 81.666 145.833C81.666 142.612 84.2777 140 87.4993 140Z" fill="black"/>
<path d="M99.1663 140C102.388 140 105 142.612 105 145.833C105 149.055 102.388 151.667 99.1663 151.667C95.9447 151.667 93.333 149.055 93.333 145.833C93.333 142.612 95.9447 140 99.1663 140Z" fill="black"/>
<path d="M110.833 140C114.055 140 116.667 142.612 116.667 145.833C116.667 149.055 114.055 151.667 110.833 151.667C107.612 151.667 105 149.055 105 145.833C105 142.612 107.612 140 110.833 140Z" fill="black"/>
<path d="M145.833 140C149.055 140 151.667 142.612 151.667 145.833C151.667 149.055 149.055 151.667 145.833 151.667C142.612 151.667 140 149.055 140 145.833C140 142.612 142.612 140 145.833 140Z" fill="black"/>
<path d="M157.499 140C160.721 140 163.333 142.612 163.333 145.833C163.333 149.055 160.721 151.667 157.499 151.667C154.278 151.667 151.666 149.055 151.666 145.833C151.666 142.612 154.278 140 157.499 140Z" fill="black"/>
<path d="M169.166 140C172.388 140 175 142.612 175 145.833C175 149.055 172.388 151.667 169.166 151.667C165.945 151.667 163.333 149.055 163.333 145.833C163.333 142.612 165.945 140 169.166 140Z" fill="black"/>
<path d="M192.499 140C195.721 140 198.333 142.612 198.333 145.833C198.333 149.055 195.721 151.667 192.499 151.667C189.278 151.667 186.666 149.055 186.666 145.833C186.666 142.612 189.278 140 192.499 140Z" fill="black"/>
<path d="M239.166 140C242.388 140 245 142.612 245 145.833C245 149.055 242.388 151.667 239.166 151.667C235.945 151.667 233.333 149.055 233.333 145.833C233.333 142.612 235.945 140 239.166 140Z" fill="black"/>
<path d="M262.499 140C265.721 140 268.333 142.612 268.333 145.833C268.333 149.055 265.721 151.667 262.499 151.667C259.278 151.667 256.666 149.055 256.666 145.833C256.666 142.612 259.278 140 262.499 140Z" fill="black"/>
<path d="M285.833 140C289.055 140 291.667 142.612 291.667 145.833C291.667 149.055 289.055 151.667 285.833 151.667C282.612 151.667 280 149.055 280 145.833C280 142.612 282.612 140 285.833 140Z" fill="black"/>
<path d="M309.166 140C312.388 140 315 142.612 315 145.833C315 149.055 312.388 151.667 309.166 151.667C305.945 151.667 303.333 149.055 303.333 145.833C303.333 142.612 305.945 140 309.166 140Z" fill="black"/>
<path d="M332.499 140C335.721 140 338.333 142.612 338.333 145.833C338.333 149.055 335.721 151.667 332.499 151.667C329.278 151.667 326.666 149.055 326.666 145.833C326.666 142.612 329.278 140 332.499 140Z" fill="black"/>
<path d="M29.1663 151.667C32.3881 151.667 34.9997 154.278 34.9997 157.5C34.9997 160.722 32.3881 163.333 29.1663 163.333C25.9447 163.333 23.333 160.722 23.333 157.5C23.333 154.278 25.9447 151.667 29.1663 151.667Z" fill="black"/>
<path d="M64.1663 151.667C67.3881 151.667 69.9997 154.278 69.9997 157.5C69.9997 160.722 67.3881 163.333 64.1663 163.333C60.9447 163.333 58.333 160.722 58.333 157.5C58.333 154.278 60.9447 151.667 64.1663 151.667Z" fill="black"/>
<path d="M75.8333 151.667C79.0551 151.667 81.6667 154.278 81.6667 157.5C81.6667 160.722 79.0551 163.333 75.8333 163.333C72.6117 163.333 70 160.722 70 157.5C70 154.278 72.6117 151.667 75.8333 151.667Z" fill="black"/>
<path d="M134.166 151.667C137.388 151.667 140 154.278 140 157.5C140 160.722 137.388 163.333 134.166 163.333C130.945 163.333 128.333 160.722 128.333 157.5C128.333 154.278 130.945 151.667 134.166 151.667Z" fill="black"/>
<path d="M145.833 151.667C149.055 151.667 151.667 154.278 151.667 157.5C151.667 160.722 149.055 163.333 145.833 163.333C142.612 163.333 140 160.722 140 157.5C140 154.278 142.612 151.667 145.833 151.667Z" fill="black"/>
<path d="M169.166 151.667C172.388 151.667 175 154.278 175 157.5C175 160.722 172.388 163.333 169.166 163.333C165.945 163.333 163.333 160.722 163.333 157.5C163.333 154.278 165.945 151.667 169.166 151.667Z" fill="black"/>
<path d="M192.499 151.667C195.721 151.667 198.333 154.278 198.333 157.5C198.333 160.722 195.721 163.333 192.499 163.333C189.278 163.333 186.666 160.722 186.666 157.5C186.666 154.278 189.278 151.667 192.499 151.667Z" fill="black"/>
<path d="M204.166 151.667C207.388 151.667 210 154.278 210 157.5C210 160.722 207.388 163.333 204.166 163.333C200.945 163.333 198.333 160.722 198.333 157.5C198.333 154.278 200.945 151.667 204.166 151.667Z" fill="black"/>
<path d="M227.499 151.667C230.721 151.667 233.333 154.278 233.333 157.5C233.333 160.722 230.721 163.333 227.499 163.333C224.278 163.333 221.666 160.722 221.666 157.5C221.666 154.278 224.278 151.667 227.499 151.667Z" fill="black"/>
<path d="M250.833 151.667C254.055 151.667 256.667 154.278 256.667 157.5C256.667 160.722 254.055 163.333 250.833 163.333C247.612 163.333 245 160.722 245 157.5C245 154.278 247.612 151.667 250.833 151.667Z" fill="black"/>
<path d="M297.499 151.667C300.721 151.667 303.333 154.278 303.333 157.5C303.333 160.722 300.721 163.333 297.499 163.333C294.278 163.333 291.666 160.722 291.666 157.5C291.666 154.278 294.278 151.667 297.499 151.667Z" fill="black"/>
<path d="M320.833 151.667C324.055 151.667 326.667 154.278 326.667 157.5C326.667 160.722 324.055 163.333 320.833 163.333C317.612 163.333 315 160.722 315 157.5C315 154.278 317.612 151.667 320.833 151.667Z" fill="black"/>
<path d="M355.833 151.667C359.055 151.667 361.667 154.278 361.667 157.5C361.667 160.722 359.055 163.333 355.833 163.333C352.612 163.333 350 160.722 350 157.5C350 154.278 352.612 151.667 355.833 151.667Z" fill="black"/>
<path d="M29.1663 163.333C32.3881 163.333 34.9997 165.945 34.9997 169.167C34.9997 172.389 32.3881 175 29.1663 175C25.9447 175 23.333 172.389 23.333 169.167C23.333 165.945 25.9447 163.333 29.1663 163.333Z" fill="black"/>
<path d="M64.1663 163.333C67.3881 163.333 69.9997 165.945 69.9997 169.167C69.9997 172.389 67.3881 175 64.1663 175C60.9447 175 58.333 172.389 58.333 169.167C58.333 165.945 60.9447 163.333 64.1663 163.333Z" fill="black"/>
<path d="M99.1663 163.333C102.388 163.333 105 165.945 105 169.167C105 172.389 102.388 175 99.1663 175C95.9447 175 93.333 172.389 93.333 169.167C93.333 165.945 95.9447 163.333 99.1663 163.333Z" fill="black"/>
<path d="M145.833 163.333C149.055 163.333 151.667 165.945 151.667 169.167C151.667 172.389 149.055 175 145.833 175C142.612 175 140 172.389 140 169.167C140 165.945 142.612 163.333 145.833 163.333Z" fill="black"/>
<path d="M157.499 163.333C160.721 163.333 163.333 165.945 163.333 169.167C163.333 172.389 160.721 175 157.499 175C154.278 175 151.666 172.389 151.666 169.167C151.666 165.945 154.278 163.333 157.499 163.333Z" fill="black"/>
<path d="M180.833 163.333C184.055 163.333 186.667 165.945 186.667 169.167C186.667 172.389 184.055 175 180.833 175C177.612 175 175 172.389 175 169.167C175 165.945 177.612 163.333 180.833 163.333Z" fill="black"/>
<path d="M192.499 163.333C195.721 163.333 198.333 165.945 198.333 169.167C198.333 172.389 195.721 175 192.499 175C189.278 175 186.666 172.389 186.666 169.167C186.666 165.945 189.278 163.333 192.499 163.333Z" fill="black"/>
<path d="M285.833 163.333C289.055 163.333 291.667 165.945 291.667 169.167C291.667 172.389 289.055 175 285.833 175C282.612 175 280 172.389 280 169.167C280 165.945 282.612 163.333 285.833 163.333Z" fill="black"/>
<path d="M297.499 163.333C300.721 163.333 303.333 165.945 303.333 169.167C303.333 172.389 300.721 175 297.499 175C294.278 175 291.666 172.389 291.666 169.167C291.666 165.945 294.278 163.333 297.499 163.333Z" fill="black"/>
<path d="M355.833 163.333C359.055 163.333 361.667 165.945 361.667 169.167C361.667 172.389 359.055 175 355.833 175C352.612 175 350 172.389 350 169.167C350 165.945 352.612 163.333 355.833 163.333Z" fill="black"/>
<path d="M29.1663 175C32.3881 175 34.9997 177.612 34.9997 180.833C34.9997 184.055 32.3881 186.667 29.1663 186.667C25.9447 186.667 23.333 184.055 23.333 180.833C23.333 177.612 25.9447 175 29.1663 175Z" fill="black"/>
<path d="M64.1663 175C67.3881 175 69.9997 177.612 69.9997 180.833C69.9997 184.055 67.3881 186.667 64.1663 186.667C60.9447 186.667 58.333 184.055 58.333 180.833C58.333 177.612 60.9447 175 64.1663 175Z" fill="black"/>
<path d="M110.833 175C114.055 175 116.667 177.612 116.667 180.833C116.667 184.055 114.055 186.667 110.833 186.667C107.612 186.667 105 184.055 105 180.833C105 177.612 107.612 175 110.833 175Z" fill="black"/>
<path d="M122.499 175C125.721 175 128.333 177.612 128.333 180.833C128.333 184.055 125.721 186.667 122.499 186.667C119.278 186.667 116.666 184.055 116.666 180.833C116.666 177.612 119.278 175 122.499 175Z" fill="black"/>
<path d="M157.499 175C160.721 175 163.333 177.612 163.333 180.833C163.333 184.055 160.721 186.667 157.499 186.667C154.278 186.667 151.666 184.055 151.666 180.833C151.666 177.612 154.278 175 157.499 175Z" fill="black"/>
<path d="M169.166 175C172.388 175 175 177.612 175 180.833C175 184.055 172.388 186.667 169.166 186.667C165.945 186.667 163.333 184.055 163.333 180.833C163.333 177.612 165.945 175 169.166 175Z" fill="black"/>
<path d="M227.499 175C230.721 175 233.333 177.612 233.333 180.833C233.333 184.055 230.721 186.667 227.499 186.667C224.278 186.667 221.666 184.055 221.666 180.833C221.666 177.612 224.278 175 227.499 175Z" fill="black"/>
<path d="M239.166 175C242.388 175 245 177.612 245 180.833C245 184.055 242.388 186.667 239.166 186.667C235.945 186.667 233.333 184.055 233.333 180.833C233.333 177.612 235.945 175 239.166 175Z" fill="black"/>
<path d="M285.833 175C289.055 175 291.667 177.612 291.667 180.833C291.667 184.055 289.055 186.667 285.833 186.667C282.612 186.667 280 184.055 280 180.833C280 177.612 282.612 175 285.833 175Z" fill="black"/>
<path d="M297.499 175C300.721 175 303.333 177.612 303.333 180.833C303.333 184.055 300.721 186.667 297.499 186.667C294.278 186.667 291.666 184.055 291.666 180.833C291.666 177.612 294.278 175 297.499 175Z" fill="black"/>
<path d="M309.166 175C312.388 175 315 177.612 315 180.833C315 184.055 312.388 186.667 309.166 186.667C305.945 186.667 303.333 184.055 303.333 180.833C303.333 177.612 305.945 175 309.166 175Z" fill="black"/>
<path d="M320.833 175C324.055 175 326.667 177.612 326.667 180.833C326.667 184.055 324.055 186.667 320.833 186.667C317.612 186.667 315 184.055 315 180.833C315 177.612 317.612 175 320.833 175Z" fill="black"/>
<path d="M332.499 175C335.721 175 338.333 177.612 338.333 180.833C338.333 184.055 335.721 186.667 332.499 186.667C329.278 186.667 326.666 184.055 326.666 180.833C326.666 177.612 329.278 175 332.499 175Z" fill="black"/>
<path d="M344.166 175C347.388 175 350 177.612 350 180.833C350 184.055 347.388 186.667 344.166 186.667C340.945 186.667 338.333 184.055 338.333 180.833C338.333 177.612 340.945 175 344.166 175Z" fill="black"/>
<path d="M355.833 175C359.055 175 361.667 177.612 361.667 180.833C361.667 184.055 359.055 186.667 355.833 186.667C352.612 186.667 350 184.055 350 180.833C350 177.612 352.612 175 355.833 175Z" fill="black"/>
<path d="M29.1663 186.667C32.3881 186.667 34.9997 189.278 34.9997 192.5C34.9997 195.722 32.3881 198.333 29.1663 198.333C25.9447 198.333 23.333 195.722 23.333 192.5C23.333 189.278 25.9447 186.667 29.1663 186.667Z" fill="black"/>
<path d="M52.4993 186.667C55.7211 186.667 58.3327 189.278 58.3327 192.5C58.3327 195.722 55.7211 198.333 52.4993 198.333C49.2777 198.333 46.666 195.722 46.666 192.5C46.666 189.278 49.2777 186.667 52.4993 186.667Z" fill="black"/>
<path d="M75.8333 186.667C79.0551 186.667 81.6667 189.278 81.6667 192.5C81.6667 195.722 79.0551 198.333 75.8333 198.333C72.6117 198.333 70 195.722 70 192.5C70 189.278 72.6117 186.667 75.8333 186.667Z" fill="black"/>
<path d="M87.4993 186.667C90.7211 186.667 93.3327 189.278 93.3327 192.5C93.3327 195.722 90.7211 198.333 87.4993 198.333C84.2777 198.333 81.666 195.722 81.666 192.5C81.666 189.278 84.2777 186.667 87.4993 186.667Z" fill="black"/>
<path d="M99.1663 186.667C102.388 186.667 105 189.278 105 192.5C105 195.722 102.388 198.333 99.1663 198.333C95.9447 198.333 93.333 195.722 93.333 192.5C93.333 189.278 95.9447 186.667 99.1663 186.667Z" fill="black"/>
<path d="M134.166 186.667C137.388 186.667 140 189.278 140 192.5C140 195.722 137.388 198.333 134.166 198.333C130.945 198.333 128.333 195.722 128.333 192.5C128.333 189.278 130.945 186.667 134.166 186.667Z" fill="black"/>
<path d="M157.499 186.667C160.721 186.667 163.333 189.278 163.333 192.5C163.333 195.722 160.721 198.333 157.499 198.333C154.278 198.333 151.666 195.722 151.666 192.5C151.666 189.278 154.278 186.667 157.499 186.667Z" fill="black"/>
<path d="M169.166 186.667C172.388 186.667 175 189.278 175 192.5C175 195.722 172.388 198.333 169.166 198.333C165.945 198.333 163.333 195.722 163.333 192.5C163.333 189.278 165.945 186.667 169.166 186.667Z" fill="black"/>
<path d="M192.499 186.667C195.721 186.667 198.333 189.278 198.333 192.5C198.333 195.722 195.721 198.333 192.499 198.333C189.278 198.333 186.666 195.722 186.666 192.5C186.666 189.278 189.278 186.667 192.499 186.667Z" fill="black"/>
<path d="M204.166 186.667C207.388 186.667 210 189.278 210 192.5C210 195.722 207.388 198.333 204.166 198.333C200.945 198.333 198.333 195.722 198.333 192.5C198.333 189.278 200.945 186.667 204.166 186.667Z" fill="black"/>
<path d="M227.499 186.667C230.721 186.667 233.333 189.278 233.333 192.5C233.333 195.722 230.721 198.333 227.499 198.333C224.278 198.333 221.666 195.722 221.666 192.5C221.666 189.278 224.278 186.667 227.499 186.667Z" fill="black"/>
<path d="M250.833 186.667C254.055 186.667 256.667 189.278 256.667 192.5C256.667 195.722 254.055 198.333 250.833 198.333C247.612 198.333 245 195.722 245 192.5C245 189.278 247.612 186.667 250.833 186.667Z" fill="black"/>
<path d="M262.499 186.667C265.721 186.667 268.333 189.278 268.333 192.5C268.333 195.722 265.721 198.333 262.499 198.333C259.278 198.333 256.666 195.722 256.666 192.5C256.666 189.278 259.278 186.667 262.499 186.667Z" fill="black"/>
<path d="M285.833 186.667C289.055 186.667 291.667 189.278 291.667 192.5C291.667 195.722 289.055 198.333 285.833 198.333C282.612 198.333 280 195.722 280 192.5C280 189.278 282.612 186.667 285.833 186.667Z" fill="black"/>
<path d="M297.499 186.667C300.721 186.667 303.333 189.278 303.333 192.5C303.333 195.722 300.721 198.333 297.499 198.333C294.278 198.333 291.666 195.722 291.666 192.5C291.666 189.278 294.278 186.667 297.499 186.667Z" fill="black"/>
<path d="M332.499 186.667C335.721 186.667 338.333 189.278 338.333 192.5C338.333 195.722 335.721 198.333 332.499 198.333C329.278 198.333 326.666 195.722 326.666 192.5C326.666 189.278 329.278 186.667 332.499 186.667Z" fill="black"/>
<path d="M355.833 186.667C359.055 186.667 361.667 189.278 361.667 192.5C361.667 195.722 359.055 198.333 355.833 198.333C352.612 198.333 350 195.722 350 192.5C350 189.278 352.612 186.667 355.833 186.667Z" fill="black"/>
<path d="M29.1663 198.333C32.3881 198.333 34.9997 200.945 34.9997 204.167C34.9997 207.389 32.3881 210 29.1663 210C25.9447 210 23.333 207.389 23.333 204.167C23.333 200.945 25.9447 198.333 29.1663 198.333Z" fill="black"/>
<path d="M52.4993 198.333C55.7211 198.333 58.3327 200.945 58.3327 204.167C58.3327 207.389 55.7211 210 52.4993 210C49.2777 210 46.666 207.389 46.666 204.167C46.666 200.945 49.2777 198.333 52.4993 198.333Z" fill="black"/>
<path d="M75.8333 198.333C79.0551 198.333 81.6667 200.945 81.6667 204.167C81.6667 207.389 79.0551 210 75.8333 210C72.6117 210 70 207.389 70 204.167C70 200.945 72.6117 198.333 75.8333 198.333Z" fill="black"/>
<path d="M87.4993 198.333C90.7211 198.333 93.3327 200.945 93.3327 204.167C93.3327 207.389 90.7211 210 87.4993 210C84.2777 210 81.666 207.389 81.666 204.167C81.666 200.945 84.2777 198.333 87.4993 198.333Z" fill="black"/>
<path d="M122.499 198.333C125.721 198.333 128.333 200.945 128.333 204.167C128.333 207.389 125.721 210 122.499 210C119.278 210 116.666 207.389 116.666 204.167C116.666 200.945 119.278 198.333 122.499 198.333Z" fill="black"/>
<path d="M145.833 198.333C149.055 198.333 151.667 200.945 151.667 204.167C151.667 207.389 149.055 210 145.833 210C142.612 210 140 207.389 140 204.167C140 200.945 142.612 198.333 145.833 198.333Z" fill="black"/>
<path d="M169.166 198.333C172.388 198.333 175 200.945 175 204.167C175 207.389 172.388 210 169.166 210C165.945 210 163.333 207.389 163.333 204.167C163.333 200.945 165.945 198.333 169.166 198.333Z" fill="black"/>
<path d="M180.833 198.333C184.055 198.333 186.667 200.945 186.667 204.167C186.667 207.389 184.055 210 180.833 210C177.612 210 175 207.389 175 204.167C175 200.945 177.612 198.333 180.833 198.333Z" fill="black"/>
<path d="M192.499 198.333C195.721 198.333 198.333 200.945 198.333 204.167C198.333 207.389 195.721 210 192.499 210C189.278 210 186.666 207.389 186.666 204.167C186.666 200.945 189.278 198.333 192.499 198.333Z" fill="black"/>
<path d="M215.833 198.333C219.055 198.333 221.667 200.945 221.667 204.167C221.667 207.389 219.055 210 215.833 210C212.612 210 210 207.389 210 204.167C210 200.945 212.612 198.333 215.833 198.333Z" fill="black"/>
<path d="M250.833 198.333C254.055 198.333 256.667 200.945 256.667 204.167C256.667 207.389 254.055 210 250.833 210C247.612 210 245 207.389 245 204.167C245 200.945 247.612 198.333 250.833 198.333Z" fill="black"/>
<path d="M274.166 198.333C277.388 198.333 280 200.945 280 204.167C280 207.389 277.388 210 274.166 210C270.945 210 268.333 207.389 268.333 204.167C268.333 200.945 270.945 198.333 274.166 198.333Z" fill="black"/>
<path d="M285.833 198.333C289.055 198.333 291.667 200.945 291.667 204.167C291.667 207.389 289.055 210 285.833 210C282.612 210 280 207.389 280 204.167C280 200.945 282.612 198.333 285.833 198.333Z" fill="black"/>
<path d="M297.499 198.333C300.721 198.333 303.333 200.945 303.333 204.167C303.333 207.389 300.721 210 297.499 210C294.278 210 291.666 207.389 291.666 204.167C291.666 200.945 294.278 198.333 297.499 198.333Z" fill="black"/>
<path d="M309.166 198.333C312.388 198.333 315 200.945 315 204.167C315 207.389 312.388 210 309.166 210C305.945 210 303.333 207.389 303.333 204.167C303.333 200.945 305.945 198.333 309.166 198.333Z" fill="black"/>
<path d="M332.499 198.333C335.721 198.333 338.333 200.945 338.333 204.167C338.333 207.389 335.721 210 332.499 210C329.278 210 326.666 207.389 326.666 204.167C326.666 200.945 329.278 198.333 332.499 198.333Z" fill="black"/>
<path d="M355.833 198.333C359.055 198.333 361.667 200.945 361.667 204.167C361.667 207.389 359.055 210 355.833 210C352.612 210 350 207.389 350 204.167C350 200.945 352.612 198.333 355.833 198.333Z" fill="black"/>
<path d="M29.1663 210C32.3881 210 34.9997 212.612 34.9997 215.833C34.9997 219.055 32.3881 221.667 29.1663 221.667C25.9447 221.667 23.333 219.055 23.333 215.833C23.333 212.612 25.9447 210 29.1663 210Z" fill="black"/>
<path d="M40.8333 210C44.0551 210 46.6667 212.612 46.6667 215.833C46.6667 219.055 44.0551 221.667 40.8333 221.667C37.6117 221.667 35 219.055 35 215.833C35 212.612 37.6117 210 40.8333 210Z" fill="black"/>
<path d="M64.1663 210C67.3881 210 69.9997 212.612 69.9997 215.833C69.9997 219.055 67.3881 221.667 64.1663 221.667C60.9447 221.667 58.333 219.055 58.333 215.833C58.333 212.612 60.9447 210 64.1663 210Z" fill="black"/>
<path d="M75.8333 210C79.0551 210 81.6667 212.612 81.6667 215.833C81.6667 219.055 79.0551 221.667 75.8333 221.667C72.6117 221.667 70 219.055 70 215.833C70 212.612 72.6117 210 75.8333 210Z" fill="black"/>
<path d="M99.1663 210C102.388 210 105 212.612 105 215.833C105 219.055 102.388 221.667 99.1663 221.667C95.9447 221.667 93.333 219.055 93.333 215.833C93.333 212.612 95.9447 210 99.1663 210Z" fill="black"/>
<path d="M110.833 210C114.055 210 116.667 212.612 116.667 215.833C116.667 219.055 114.055 221.667 110.833 221.667C107.612 221.667 105 219.055 105 215.833C105 212.612 107.612 210 110.833 210Z" fill="black"/>
<path d="M122.499 210C125.721 210 128.333 212.612 128.333 215.833C128.333 219.055 125.721 221.667 122.499 221.667C119.278 221.667 116.666 219.055 116.666 215.833C116.666 212.612 119.278 210 122.499 210Z" fill="black"/>
<path d="M134.166 210C137.388 210 140 212.612 140 215.833C140 219.055 137.388 221.667 134.166 221.667C130.945 221.667 128.333 219.055 128.333 215.833C128.333 212.612 130.945 210 134.166 210Z" fill="black"/>
<path d="M169.166 210C172.388 210 175 212.612 175 215.833C175 219.055 172.388 221.667 169.166 221.667C165.945 221.667 163.333 219.055 163.333 215.833C163.333 212.612 165.945 210 169.166 210Z" fill="black"/>
<path d="M204.166 210C207.388 210 210 212.612 210 215.833C210 219.055 207.388 221.667 204.166 221.667C200.945 221.667 198.333 219.055 198.333 215.833C198.333 212.612 200.945 210 204.166 210Z" fill="black"/>
<path d="M262.499 210C265.721 210 268.333 212.612 268.333 215.833C268.333 219.055 265.721 221.667 262.499 221.667C259.278 221.667 256.666 219.055 256.666 215.833C256.666 212.612 259.278 210 262.499 210Z" fill="black"/>
<path d="M297.499 210C300.721 210 303.333 212.612 303.333 215.833C303.333 219.055 300.721 221.667 297.499 221.667C294.278 221.667 291.666 219.055 291.666 215.833C291.666 212.612 294.278 210 297.499 210Z" fill="black"/>
<path d="M320.833 210C324.055 210 326.667 212.612 326.667 215.833C326.667 219.055 324.055 221.667 320.833 221.667C317.612 221.667 315 219.055 315 215.833C315 212.612 317.612 210 320.833 210Z" fill="black"/>
<path d="M29.1663 221.667C32.3881 221.667 34.9997 224.278 34.9997 227.5C34.9997 230.722 32.3881 233.333 29.1663 233.333C25.9447 233.333 23.333 230.722 23.333 227.5C23.333 224.278 25.9447 221.667 29.1663 221.667Z" fill="black"/>
<path d="M52.4993 221.667C55.7211 221.667 58.3327 224.278 58.3327 227.5C58.3327 230.722 55.7211 233.333 52.4993 233.333C49.2777 233.333 46.666 230.722 46.666 227.5C46.666 224.278 49.2777 221.667 52.4993 221.667Z" fill="black"/>
<path d="M64.1663 221.667C67.3881 221.667 69.9997 224.278 69.9997 227.5C69.9997 230.722 67.3881 233.333 64.1663 233.333C60.9447 233.333 58.333 230.722 58.333 227.5C58.333 224.278 60.9447 221.667 64.1663 221.667Z" fill="black"/>
<path d="M75.8333 221.667C79.0551 221.667 81.6667 224.278 81.6667 227.5C81.6667 230.722 79.0551 233.333 75.8333 233.333C72.6117 233.333 70 230.722 70 227.5C70 224.278 72.6117 221.667 75.8333 221.667Z" fill="black"/>
<path d="M110.833 221.667C114.055 221.667 116.667 224.278 116.667 227.5C116.667 230.722 114.055 233.333 110.833 233.333C107.612 233.333 105 230.722 105 227.5C105 224.278 107.612 221.667 110.833 221.667Z" fill="black"/>
<path d="M157.499 221.667C160.721 221.667 163.333 224.278 163.333 227.5C163.333 230.722 160.721 233.333 157.499 233.333C154.278 233.333 151.666 230.722 151.666 227.5C151.666 224.278 154.278 221.667 157.499 221.667Z" fill="black"/>
<path d="M169.166 221.667C172.388 221.667 175 224.278 175 227.5C175 230.722 172.388 233.333 169.166 233.333C165.945 233.333 163.333 230.722 163.333 227.5C163.333 224.278 165.945 221.667 169.166 221.667Z" fill="black"/>
<path d="M239.166 221.667C242.388 221.667 245 224.278 245 227.5C245 230.722 242.388 233.333 239.166 233.333C235.945 233.333 233.333 230.722 233.333 227.5C233.333 224.278 235.945 221.667 239.166 221.667Z" fill="black"/>
<path d="M250.833 221.667C254.055 221.667 256.667 224.278 256.667 227.5C256.667 230.722 254.055 233.333 250.833 233.333C247.612 233.333 245 230.722 245 227.5C245 224.278 247.612 221.667 250.833 221.667Z" fill="black"/>
<path d="M262.499 221.667C265.721 221.667 268.333 224.278 268.333 227.5C268.333 230.722 265.721 233.333 262.499 233.333C259.278 233.333 256.666 230.722 256.666 227.5C256.666 224.278 259.278 221.667 262.499 221.667Z" fill="black"/>
<path d="M309.166 221.667C312.388 221.667 315 224.278 315 227.5C315 230.722 312.388 233.333 309.166 233.333C305.945 233.333 303.333 230.722 303.333 227.5C303.333 224.278 305.945 221.667 309.166 221.667Z" fill="black"/>
<path d="M332.499 221.667C335.721 221.667 338.333 224.278 338.333 227.5C338.333 230.722 335.721 233.333 332.499 233.333C329.278 233.333 326.666 230.722 326.666 227.5C326.666 224.278 329.278 221.667 332.499 221.667Z" fill="black"/>
<path d="M344.166 221.667C347.388 221.667 350 224.278 350 227.5C350 230.722 347.388 233.333 344.166 233.333C340.945 233.333 338.333 230.722 338.333 227.5C338.333 224.278 340.945 221.667 344.166 221.667Z" fill="black"/>
<path d="M29.1663 233.333C32.3881 233.333 34.9997 235.945 34.9997 239.167C34.9997 242.389 32.3881 245 29.1663 245C25.9447 245 23.333 242.389 23.333 239.167C23.333 235.945 25.9447 233.333 29.1663 233.333Z" fill="black"/>
<path d="M40.8333 233.333C44.0551 233.333 46.6667 235.945 46.6667 239.167C46.6667 242.389 44.0551 245 40.8333 245C37.6117 245 35 242.389 35 239.167C35 235.945 37.6117 233.333 40.8333 233.333Z" fill="black"/>
<path d="M64.1663 233.333C67.3881 233.333 69.9997 235.945 69.9997 239.167C69.9997 242.389 67.3881 245 64.1663 245C60.9447 245 58.333 242.389 58.333 239.167C58.333 235.945 60.9447 233.333 64.1663 233.333Z" fill="black"/>
<path d="M75.8333 233.333C79.0551 233.333 81.6667 235.945 81.6667 239.167C81.6667 242.389 79.0551 245 75.8333 245C72.6117 245 70 242.389 70 239.167C70 235.945 72.6117 233.333 75.8333 233.333Z" fill="black"/>
<path d="M99.1663 233.333C102.388 233.333 105 235.945 105 239.167C105 242.389 102.388 245 99.1663 245C95.9447 245 93.333 242.389 93.333 239.167C93.333 235.945 95.9447 233.333 99.1663 233.333Z" fill="black"/>
<path d="M110.833 233.333C114.055 233.333 116.667 235.945 116.667 239.167C116.667 242.389 114.055 245 110.833 245C107.612 245 105 242.389 105 239.167C105 235.945 107.612 233.333 110.833 233.333Z" fill="black"/>
<path d="M122.499 233.333C125.721 233.333 128.333 235.945 128.333 239.167C128.333 242.389 125.721 245 122.499 245C119.278 245 116.666 242.389 116.666 239.167C116.666 235.945 119.278 233.333 122.499 233.333Z" fill="black"/>
<path d="M134.166 233.333C137.388 233.333 140 235.945 140 239.167C140 242.389 137.388 245 134.166 245C130.945 245 128.333 242.389 128.333 239.167C128.333 235.945 130.945 233.333 134.166 233.333Z" fill="black"/>
<path d="M145.833 233.333C149.055 233.333 151.667 235.945 151.667 239.167C151.667 242.389 149.055 245 145.833 245C142.612 245 140 242.389 140 239.167C140 235.945 142.612 233.333 145.833 233.333Z" fill="black"/>
<path d="M180.833 233.333C184.055 233.333 186.667 235.945 186.667 239.167C186.667 242.389 184.055 245 180.833 245C177.612 245 175 242.389 175 239.167C175 235.945 177.612 233.333 180.833 233.333Z" fill="black"/>
<path d="M192.499 233.333C195.721 233.333 198.333 235.945 198.333 239.167C198.333 242.389 195.721 245 192.499 245C189.278 245 186.666 242.389 186.666 239.167C186.666 235.945 189.278 233.333 192.499 233.333Z" fill="black"/>
<path d="M215.833 233.333C219.055 233.333 221.667 235.945 221.667 239.167C221.667 242.389 219.055 245 215.833 245C212.612 245 210 242.389 210 239.167C210 235.945 212.612 233.333 215.833 233.333Z" fill="black"/>
<path d="M227.499 233.333C230.721 233.333 233.333 235.945 233.333 239.167C233.333 242.389 230.721 245 227.499 245C224.278 245 221.666 242.389 221.666 239.167C221.666 235.945 224.278 233.333 227.499 233.333Z" fill="black"/>
<path d="M250.833 233.333C254.055 233.333 256.667 235.945 256.667 239.167C256.667 242.389 254.055 245 250.833 245C247.612 245 245 242.389 245 239.167C245 235.945 247.612 233.333 250.833 233.333Z" fill="black"/>
<path d="M262.499 233.333C265.721 233.333 268.333 235.945 268.333 239.167C268.333 242.389 265.721 245 262.499 245C259.278 245 256.666 242.389 256.666 239.167C256.666 235.945 259.278 233.333 262.499 233.333Z" fill="black"/>
<path d="M285.833 233.333C289.055 233.333 291.667 235.945 291.667 239.167C291.667 242.389 289.055 245 285.833 245C282.612 245 280 242.389 280 239.167C280 235.945 282.612 233.333 285.833 233.333Z" fill="black"/>
<path d="M297.499 233.333C300.721 233.333 303.333 235.945 303.333 239.167C303.333 242.389 300.721 245 297.499 245C294.278 245 291.666 242.389 291.666 239.167C291.666 235.945 294.278 233.333 297.499 233.333Z" fill="black"/>
<path d="M320.833 233.333C324.055 233.333 326.667 235.945 326.667 239.167C326.667 242.389 324.055 245 320.833 245C317.612 245 315 242.389 315 239.167C315 235.945 317.612 233.333 320.833 233.333Z" fill="black"/>
<path d="M355.833 233.333C359.055 233.333 361.667 235.945 361.667 239.167C361.667 242.389 359.055 245 355.833 245C352.612 245 350 242.389 350 239.167C350 235.945 352.612 233.333 355.833 233.333Z" fill="black"/>
<path d="M29.1663 245C32.3881 245 34.9997 247.612 34.9997 250.833C34.9997 254.055 32.3881 256.667 29.1663 256.667C25.9447 256.667 23.333 254.055 23.333 250.833C23.333 247.612 25.9447 245 29.1663 245Z" fill="black"/>
<path d="M40.8333 245C44.0551 245 46.6667 247.612 46.6667 250.833C46.6667 254.055 44.0551 256.667 40.8333 256.667C37.6117 256.667 35 254.055 35 250.833C35 247.612 37.6117 245 40.8333 245Z" fill="black"/>
<path d="M64.1663 245C67.3881 245 69.9997 247.612 69.9997 250.833C69.9997 254.055 67.3881 256.667 64.1663 256.667C60.9447 256.667 58.333 254.055 58.333 250.833C58.333 247.612 60.9447 245 64.1663 245Z" fill="black"/>
<path d="M87.4993 245C90.7211 245 93.3327 247.612 93.3327 250.833C93.3327 254.055 90.7211 256.667 87.4993 256.667C84.2777 256.667 81.666 254.055 81.666 250.833C81.666 247.612 84.2777 245 87.4993 245Z" fill="black"/>
<path d="M110.833 245C114.055 245 116.667 247.612 116.667 250.833C116.667 254.055 114.055 256.667 110.833 256.667C107.612 256.667 105 254.055 105 250.833C105 247.612 107.612 245 110.833 245Z" fill="black"/>
<path d="M122.499 245C125.721 245 128.333 247.612 128.333 250.833C128.333 254.055 125.721 256.667 122.499 256.667C119.278 256.667 116.666 254.055 116.666 250.833C116.666 247.612 119.278 245 122.499 245Z" fill="black"/>
<path d="M180.833 245C184.055 245 186.667 247.612 186.667 250.833C186.667 254.055 184.055 256.667 180.833 256.667C177.612 256.667 175 254.055 175 250.833C175 247.612 177.612 245 180.833 245Z" fill="black"/>
<path d="M204.166 245C207.388 245 210 247.612 210 250.833C210 254.055 207.388 256.667 204.166 256.667C200.945 256.667 198.333 254.055 198.333 250.833C198.333 247.612 200.945 245 204.166 245Z" fill="black"/>
<path d="M215.833 245C219.055 245 221.667 247.612 221.667 250.833C221.667 254.055 219.055 256.667 215.833 256.667C212.612 256.667 210 254.055 210 250.833C210 247.612 212.612 245 215.833 245Z" fill="black"/>
<path d="M274.166 245C277.388 245 280 247.612 280 250.833C280 254.055 277.388 256.667 274.166 256.667C270.945 256.667 268.333 254.055 268.333 250.833C268.333 247.612 270.945 245 274.166 245Z" fill="black"/>
<path d="M297.499 245C300.721 245 303.333 247.612 303.333 250.833C303.333 254.055 300.721 256.667 297.499 256.667C294.278 256.667 291.666 254.055 291.666 250.833C291.666 247.612 294.278 245 297.499 245Z" fill="black"/>
<path d="M320.833 245C324.055 245 326.667 247.612 326.667 250.833C326.667 254.055 324.055 256.667 320.833 256.667C317.612 256.667 315 254.055 315 250.833C315 247.612 317.612 245 320.833 245Z" fill="black"/>
<path d="M332.499 245C335.721 245 338.333 247.612 338.333 250.833C338.333 254.055 335.721 256.667 332.499 256.667C329.278 256.667 326.666 254.055 326.666 250.833C326.666 247.612 329.278 245 332.499 245Z" fill="black"/>
<path d="M29.1663 256.667C32.3881 256.667 34.9997 259.278 34.9997 262.5C34.9997 265.722 32.3881 268.333 29.1663 268.333C25.9447 268.333 23.333 265.722 23.333 262.5C23.333 259.278 25.9447 256.667 29.1663 256.667Z" fill="black"/>
<path d="M40.8333 256.667C44.0551 256.667 46.6667 259.278 46.6667 262.5C46.6667 265.722 44.0551 268.333 40.8333 268.333C37.6117 268.333 35 265.722 35 262.5C35 259.278 37.6117 256.667 40.8333 256.667Z" fill="black"/>
<path d="M52.4993 256.667C55.7211 256.667 58.3327 259.278 58.3327 262.5C58.3327 265.722 55.7211 268.333 52.4993 268.333C49.2777 268.333 46.666 265.722 46.666 262.5C46.666 259.278 49.2777 256.667 52.4993 256.667Z" fill="black"/>
<path d="M64.1663 256.667C67.3881 256.667 69.9997 259.278 69.9997 262.5C69.9997 265.722 67.3881 268.333 64.1663 268.333C60.9447 268.333 58.333 265.722 58.333 262.5C58.333 259.278 60.9447 256.667 64.1663 256.667Z" fill="black"/>
<path d="M75.8333 256.667C79.0551 256.667 81.6667 259.278 81.6667 262.5C81.6667 265.722 79.0551 268.333 75.8333 268.333C72.6117 268.333 70 265.722 70 262.5C70 259.278 72.6117 256.667 75.8333 256.667Z" fill="black"/>
<path d="M99.1663 256.667C102.388 256.667 105 259.278 105 262.5C105 265.722 102.388 268.333 99.1663 268.333C95.9447 268.333 93.333 265.722 93.333 262.5C93.333 259.278 95.9447 256.667 99.1663 256.667Z" fill="black"/>
<path d="M110.833 256.667C114.055 256.667 116.667 259.278 116.667 262.5C116.667 265.722 114.055 268.333 110.833 268.333C107.612 268.333 105 265.722 105 262.5C105 259.278 107.612 256.667 110.833 256.667Z" fill="black"/>
<path d="M122.499 256.667C125.721 256.667 128.333 259.278 128.333 262.5C128.333 265.722 125.721 268.333 122.499 268.333C119.278 268.333 116.666 265.722 116.666 262.5C116.666 259.278 119.278 256.667 122.499 256.667Z" fill="black"/>
<path d="M134.166 256.667C137.388 256.667 140 259.278 140 262.5C140 265.722 137.388 268.333 134.166 268.333C130.945 268.333 128.333 265.722 128.333 262.5C128.333 259.278 130.945 256.667 134.166 256.667Z" fill="black"/>
<path d="M145.833 256.667C149.055 256.667 151.667 259.278 151.667 262.5C151.667 265.722 149.055 268.333 145.833 268.333C142.612 268.333 140 265.722 140 262.5C140 259.278 142.612 256.667 145.833 256.667Z" fill="black"/>
<path d="M157.499 256.667C160.721 256.667 163.333 259.278 163.333 262.5C163.333 265.722 160.721 268.333 157.499 268.333C154.278 268.333 151.666 265.722 151.666 262.5C151.666 259.278 154.278 256.667 157.499 256.667Z" fill="black"/>
<path d="M180.833 256.667C184.055 256.667 186.667 259.278 186.667 262.5C186.667 265.722 184.055 268.333 180.833 268.333C177.612 268.333 175 265.722 175 262.5C175 259.278 177.612 256.667 180.833 256.667Z" fill="black"/>
<path d="M215.833 256.667C219.055 256.667 221.667 259.278 221.667 262.5C221.667 265.722 219.055 268.333 215.833 268.333C212.612 268.333 210 265.722 210 262.5C210 259.278 212.612 256.667 215.833 256.667Z" fill="black"/>
<path d="M227.499 256.667C230.721 256.667 233.333 259.278 233.333 262.5C233.333 265.722 230.721 268.333 227.499 268.333C224.278 268.333 221.666 265.722 221.666 262.5C221.666 259.278 224.278 256.667 227.499 256.667Z" fill="black"/>
<path d="M239.166 256.667C242.388 256.667 245 259.278 245 262.5C245 265.722 242.388 268.333 239.166 268.333C235.945 268.333 233.333 265.722 233.333 262.5C233.333 259.278 235.945 256.667 239.166 256.667Z" fill="black"/>
<path d="M262.499 256.667C265.721 256.667 268.333 259.278 268.333 262.5C268.333 265.722 265.721 268.333 262.499 268.333C259.278 268.333 256.666 265.722 256.666 262.5C256.666 259.278 259.278 256.667 262.499 256.667Z" fill="black"/>
<path d="M274.166 256.667C277.388 256.667 280 259.278 280 262.5C280 265.722 277.388 268.333 274.166 268.333C270.945 268.333 268.333 265.722 268.333 262.5C268.333 259.278 270.945 256.667 274.166 256.667Z" fill="black"/>
<path d="M285.833 256.667C289.055 256.667 291.667 259.278 291.667 262.5C291.667 265.722 289.055 268.333 285.833 268.333C282.612 268.333 280 265.722 280 262.5C280 259.278 282.612 256.667 285.833 256.667Z" fill="black"/>
<path d="M297.499 256.667C300.721 256.667 303.333 259.278 303.333 262.5C303.333 265.722 300.721 268.333 297.499 268.333C294.278 268.333 291.666 265.722 291.666 262.5C291.666 259.278 294.278 256.667 297.499 256.667Z" fill="black"/>
<path d="M309.166 256.667C312.388 256.667 315 259.278 315 262.5C315 265.722 312.388 268.333 309.166 268.333C305.945 268.333 303.333 265.722 303.333 262.5C303.333 259.278 305.945 256.667 309.166 256.667Z" fill="black"/>
<path d="M320.833 256.667C324.055 256.667 326.667 259.278 326.667 262.5C326.667 265.722 324.055 268.333 320.833 268.333C317.612 268.333 315 265.722 315 262.5C315 259.278 317.612 256.667 320.833 256.667Z" fill="black"/>
<path d="M332.499 256.667C335.721 256.667 338.333 259.278 338.333 262.5C338.333 265.722 335.721 268.333 332.499 268.333C329.278 268.333 326.666 265.722 326.666 262.5C326.666 259.278 329.278 256.667 332.499 256.667Z" fill="black"/>
<path d="M344.166 256.667C347.388 256.667 350 259.278 350 262.5C350 265.722 347.388 268.333 344.166 268.333C340.945 268.333 338.333 265.722 338.333 262.5C338.333 259.278 340.945 256.667 344.166 256.667Z" fill="black"/>
<path d="M122.499 268.333C125.721 268.333 128.333 270.945 128.333 274.167C128.333 277.389 125.721 280 122.499 280C119.278 280 116.666 277.389 116.666 274.167C116.666 270.945 119.278 268.333 122.499 268.333Z" fill="black"/>
<path d="M134.166 268.333C137.388 268.333 140 270.945 140 274.167C140 277.389 137.388 280 134.166 280C130.945 280 128.333 277.389 128.333 274.167C128.333 270.945 130.945 268.333 134.166 268.333Z" fill="black"/>
<path d="M145.833 268.333C149.055 268.333 151.667 270.945 151.667 274.167C151.667 277.389 149.055 280 145.833 280C142.612 280 140 277.389 140 274.167C140 270.945 142.612 268.333 145.833 268.333Z" fill="black"/>
<path d="M169.166 268.333C172.388 268.333 175 270.945 175 274.167C175 277.389 172.388 280 169.166 280C165.945 280 163.333 277.389 163.333 274.167C163.333 270.945 165.945 268.333 169.166 268.333Z" fill="black"/>
<path d="M180.833 268.333C184.055 268.333 186.667 270.945 186.667 274.167C186.667 277.389 184.055 280 180.833 280C177.612 280 175 277.389 175 274.167C175 270.945 177.612 268.333 180.833 268.333Z" fill="black"/>
<path d="M215.833 268.333C219.055 268.333 221.667 270.945 221.667 274.167C221.667 277.389 219.055 280 215.833 280C212.612 280 210 277.389 210 274.167C210 270.945 212.612 268.333 215.833 268.333Z" fill="black"/>
<path d="M227.499 268.333C230.721 268.333 233.333 270.945 233.333 274.167C233.333 277.389 230.721 280 227.499 280C224.278 280 221.666 277.389 221.666 274.167C221.666 270.945 224.278 268.333 227.499 268.333Z" fill="black"/>
<path d="M239.166 268.333C242.388 268.333 245 270.945 245 274.167C245 277.389 242.388 280 239.166 280C235.945 280 233.333 277.389 233.333 274.167C233.333 270.945 235.945 268.333 239.166 268.333Z" fill="black"/>
<path d="M262.499 268.333C265.721 268.333 268.333 270.945 268.333 274.167C268.333 277.389 265.721 280 262.499 280C259.278 280 256.666 277.389 256.666 274.167C256.666 270.945 259.278 268.333 262.499 268.333Z" fill="black"/>
<path d="M309.166 268.333C312.388 268.333 315 270.945 315 274.167C315 277.389 312.388 280 309.166 280C305.945 280 303.333 277.389 303.333 274.167C303.333 270.945 305.945 268.333 309.166 268.333Z" fill="black"/>
<path d="M320.833 268.333C324.055 268.333 326.667 270.945 326.667 274.167C326.667 277.389 324.055 280 320.833 280C317.612 280 315 277.389 315 274.167C315 270.945 317.612 268.333 320.833 268.333Z" fill="black"/>
<path d="M122.499 280C125.721 280 128.333 282.612 128.333 285.833C128.333 289.055 125.721 291.667 122.499 291.667C119.278 291.667 116.666 289.055 116.666 285.833C116.666 282.612 119.278 280 122.499 280Z" fill="black"/>
<path d="M134.166 280C137.388 280 140 282.612 140 285.833C140 289.055 137.388 291.667 134.166 291.667C130.945 291.667 128.333 289.055 128.333 285.833C128.333 282.612 130.945 280 134.166 280Z" fill="black"/>
<path d="M157.499 280C160.721 280 163.333 282.612 163.333 285.833C163.333 289.055 160.721 291.667 157.499 291.667C154.278 291.667 151.666 289.055 151.666 285.833C151.666 282.612 154.278 280 157.499 280Z" fill="black"/>
<path d="M180.833 280C184.055 280 186.667 282.612 186.667 285.833C186.667 289.055 184.055 291.667 180.833 291.667C177.612 291.667 175 289.055 175 285.833C175 282.612 177.612 280 180.833 280Z" fill="black"/>
<path d="M204.166 280C207.388 280 210 282.612 210 285.833C210 289.055 207.388 291.667 204.166 291.667C200.945 291.667 198.333 289.055 198.333 285.833C198.333 282.612 200.945 280 204.166 280Z" fill="black"/>
<path d="M215.833 280C219.055 280 221.667 282.612 221.667 285.833C221.667 289.055 219.055 291.667 215.833 291.667C212.612 291.667 210 289.055 210 285.833C210 282.612 212.612 280 215.833 280Z" fill="black"/>
<path d="M250.833 280C254.055 280 256.667 282.612 256.667 285.833C256.667 289.055 254.055 291.667 250.833 291.667C247.612 291.667 245 289.055 245 285.833C245 282.612 247.612 280 250.833 280Z" fill="black"/>
<path d="M262.499 280C265.721 280 268.333 282.612 268.333 285.833C268.333 289.055 265.721 291.667 262.499 291.667C259.278 291.667 256.666 289.055 256.666 285.833C256.666 282.612 259.278 280 262.499 280Z" fill="black"/>
<path d="M285.833 280C289.055 280 291.667 282.612 291.667 285.833C291.667 289.055 289.055 291.667 285.833 291.667C282.612 291.667 280 289.055 280 285.833C280 282.612 282.612 280 285.833 280Z" fill="black"/>
<path d="M309.166 280C312.388 280 315 282.612 315 285.833C315 289.055 312.388 291.667 309.166 291.667C305.945 291.667 303.333 289.055 303.333 285.833C303.333 282.612 305.945 280 309.166 280Z" fill="black"/>
<path d="M320.833 280C324.055 280 326.667 282.612 326.667 285.833C326.667 289.055 324.055 291.667 320.833 291.667C317.612 291.667 315 289.055 315 285.833C315 282.612 317.612 280 320.833 280Z" fill="black"/>
<path d="M122.499 291.667C125.721 291.667 128.333 294.278 128.333 297.5C128.333 300.722 125.721 303.333 122.499 303.333C119.278 303.333 116.666 300.722 116.666 297.5C116.666 294.278 119.278 291.667 122.499 291.667Z" fill="black"/>
<path d="M180.833 291.667C184.055 291.667 186.667 294.278 186.667 297.5C186.667 300.722 184.055 303.333 180.833 303.333C177.612 303.333 175 300.722 175 297.5C175 294.278 177.612 291.667 180.833 291.667Z" fill="black"/>
<path d="M204.166 291.667C207.388 291.667 210 294.278 210 297.5C210 300.722 207.388 303.333 204.166 303.333C200.945 303.333 198.333 300.722 198.333 297.5C198.333 294.278 200.945 291.667 204.166 291.667Z" fill="black"/>
<path d="M227.499 291.667C230.721 291.667 233.333 294.278 233.333 297.5C233.333 300.722 230.721 303.333 227.499 303.333C224.278 303.333 221.666 300.722 221.666 297.5C221.666 294.278 224.278 291.667 227.499 291.667Z" fill="black"/>
<path d="M239.166 291.667C242.388 291.667 245 294.278 245 297.5C245 300.722 242.388 303.333 239.166 303.333C235.945 303.333 233.333 300.722 233.333 297.5C233.333 294.278 235.945 291.667 239.166 291.667Z" fill="black"/>
<path d="M250.833 291.667C254.055 291.667 256.667 294.278 256.667 297.5C256.667 300.722 254.055 303.333 250.833 303.333C247.612 303.333 245 300.722 245 297.5C245 294.278 247.612 291.667 250.833 291.667Z" fill="black"/>
<path d="M262.499 291.667C265.721 291.667 268.333 294.278 268.333 297.5C268.333 300.722 265.721 303.333 262.499 303.333C259.278 303.333 256.666 300.722 256.666 297.5C256.666 294.278 259.278 291.667 262.499 291.667Z" fill="black"/>
<path d="M309.166 291.667C312.388 291.667 315 294.278 315 297.5C315 300.722 312.388 303.333 309.166 303.333C305.945 303.333 303.333 300.722 303.333 297.5C303.333 294.278 305.945 291.667 309.166 291.667Z" fill="black"/>
<path d="M344.166 291.667C347.388 291.667 350 294.278 350 297.5C350 300.722 347.388 303.333 344.166 303.333C340.945 303.333 338.333 300.722 338.333 297.5C338.333 294.278 340.945 291.667 344.166 291.667Z" fill="black"/>
<path d="M122.499 303.333C125.721 303.333 128.333 305.945 128.333 309.167C128.333 312.389 125.721 315 122.499 315C119.278 315 116.666 312.389 116.666 309.167C116.666 305.945 119.278 303.333 122.499 303.333Z" fill="black"/>
<path d="M134.166 303.333C137.388 303.333 140 305.945 140 309.167C140 312.389 137.388 315 134.166 315C130.945 315 128.333 312.389 128.333 309.167C128.333 305.945 130.945 303.333 134.166 303.333Z" fill="black"/>
<path d="M157.499 303.333C160.721 303.333 163.333 305.945 163.333 309.167C163.333 312.389 160.721 315 157.499 315C154.278 315 151.666 312.389 151.666 309.167C151.666 305.945 154.278 303.333 157.499 303.333Z" fill="black"/>
<path d="M180.833 303.333C184.055 303.333 186.667 305.945 186.667 309.167C186.667 312.389 184.055 315 180.833 315C177.612 315 175 312.389 175 309.167C175 305.945 177.612 303.333 180.833 303.333Z" fill="black"/>
<path d="M215.833 303.333C219.055 303.333 221.667 305.945 221.667 309.167C221.667 312.389 219.055 315 215.833 315C212.612 315 210 312.389 210 309.167C210 305.945 212.612 303.333 215.833 303.333Z" fill="black"/>
<path d="M250.833 303.333C254.055 303.333 256.667 305.945 256.667 309.167C256.667 312.389 254.055 315 250.833 315C247.612 315 245 312.389 245 309.167C245 305.945 247.612 303.333 250.833 303.333Z" fill="black"/>
<path d="M262.499 303.333C265.721 303.333 268.333 305.945 268.333 309.167C268.333 312.389 265.721 315 262.499 315C259.278 315 256.666 312.389 256.666 309.167C256.666 305.945 259.278 303.333 262.499 303.333Z" fill="black"/>
<path d="M274.166 303.333C277.388 303.333 280 305.945 280 309.167C280 312.389 277.388 315 274.166 315C270.945 315 268.333 312.389 268.333 309.167C268.333 305.945 270.945 303.333 274.166 303.333Z" fill="black"/>
<path d="M285.833 303.333C289.055 303.333 291.667 305.945 291.667 309.167C291.667 312.389 289.055 315 285.833 315C282.612 315 280 312.389 280 309.167C280 305.945 282.612 303.333 285.833 303.333Z" fill="black"/>
<path d="M297.499 303.333C300.721 303.333 303.333 305.945 303.333 309.167C303.333 312.389 300.721 315 297.499 315C294.278 315 291.666 312.389 291.666 309.167C291.666 305.945 294.278 303.333 297.499 303.333Z" fill="black"/>
<path d="M309.166 303.333C312.388 303.333 315 305.945 315 309.167C315 312.389 312.388 315 309.166 315C305.945 315 303.333 312.389 303.333 309.167C303.333 305.945 305.945 303.333 309.166 303.333Z" fill="black"/>
<path d="M320.833 303.333C324.055 303.333 326.667 305.945 326.667 309.167C326.667 312.389 324.055 315 320.833 315C317.612 315 315 312.389 315 309.167C315 305.945 317.612 303.333 320.833 303.333Z" fill="black"/>
<path d="M122.499 315C125.721 315 128.333 317.612 128.333 320.833C128.333 324.055 125.721 326.667 122.499 326.667C119.278 326.667 116.666 324.055 116.666 320.833C116.666 317.612 119.278 315 122.499 315Z" fill="black"/>
<path d="M157.499 315C160.721 315 163.333 317.612 163.333 320.833C163.333 324.055 160.721 326.667 157.499 326.667C154.278 326.667 151.666 324.055 151.666 320.833C151.666 317.612 154.278 315 157.499 315Z" fill="black"/>
<path d="M180.833 315C184.055 315 186.667 317.612 186.667 320.833C186.667 324.055 184.055 326.667 180.833 326.667C177.612 326.667 175 324.055 175 320.833C175 317.612 177.612 315 180.833 315Z" fill="black"/>
<path d="M192.499 315C195.721 315 198.333 317.612 198.333 320.833C198.333 324.055 195.721 326.667 192.499 326.667C189.278 326.667 186.666 324.055 186.666 320.833C186.666 317.612 189.278 315 192.499 315Z" fill="black"/>
<path d="M204.166 315C207.388 315 210 317.612 210 320.833C210 324.055 207.388 326.667 204.166 326.667C200.945 326.667 198.333 324.055 198.333 320.833C198.333 317.612 200.945 315 204.166 315Z" fill="black"/>
<path d="M262.499 315C265.721 315 268.333 317.612 268.333 320.833C268.333 324.055 265.721 326.667 262.499 326.667C259.278 326.667 256.666 324.055 256.666 320.833C256.666 317.612 259.278 315 262.499 315Z" fill="black"/>
<path d="M274.166 315C277.388 315 280 317.612 280 320.833C280 324.055 277.388 326.667 274.166 326.667C270.945 326.667 268.333 324.055 268.333 320.833C268.333 317.612 270.945 315 274.166 315Z" fill="black"/>
<path d="M344.166 315C347.388 315 350 317.612 350 320.833C350 324.055 347.388 326.667 344.166 326.667C340.945 326.667 338.333 324.055 338.333 320.833C338.333 317.612 340.945 315 344.166 315Z" fill="black"/>
<path d="M134.166 326.667C137.388 326.667 140 329.278 140 332.5C140 335.722 137.388 338.333 134.166 338.333C130.945 338.333 128.333 335.722 128.333 332.5C128.333 329.278 130.945 326.667 134.166 326.667Z" fill="black"/>
<path d="M180.833 326.667C184.055 326.667 186.667 329.278 186.667 332.5C186.667 335.722 184.055 338.333 180.833 338.333C177.612 338.333 175 335.722 175 332.5C175 329.278 177.612 326.667 180.833 326.667Z" fill="black"/>
<path d="M204.166 326.667C207.388 326.667 210 329.278 210 332.5C210 335.722 207.388 338.333 204.166 338.333C200.945 338.333 198.333 335.722 198.333 332.5C198.333 329.278 200.945 326.667 204.166 326.667Z" fill="black"/>
<path d="M227.499 326.667C230.721 326.667 233.333 329.278 233.333 332.5C233.333 335.722 230.721 338.333 227.499 338.333C224.278 338.333 221.666 335.722 221.666 332.5C221.666 329.278 224.278 326.667 227.499 326.667Z" fill="black"/>
<path d="M239.166 326.667C242.388 326.667 245 329.278 245 332.5C245 335.722 242.388 338.333 239.166 338.333C235.945 338.333 233.333 335.722 233.333 332.5C233.333 329.278 235.945 326.667 239.166 326.667Z" fill="black"/>
<path d="M250.833 326.667C254.055 326.667 256.667 329.278 256.667 332.5C256.667 335.722 254.055 338.333 250.833 338.333C247.612 338.333 245 335.722 245 332.5C245 329.278 247.612 326.667 250.833 326.667Z" fill="black"/>
<path d="M262.499 326.667C265.721 326.667 268.333 329.278 268.333 332.5C268.333 335.722 265.721 338.333 262.499 338.333C259.278 338.333 256.666 335.722 256.666 332.5C256.666 329.278 259.278 326.667 262.499 326.667Z" fill="black"/>
<path d="M297.499 326.667C300.721 326.667 303.333 329.278 303.333 332.5C303.333 335.722 300.721 338.333 297.499 338.333C294.278 338.333 291.666 335.722 291.666 332.5C291.666 329.278 294.278 326.667 297.499 326.667Z" fill="black"/>
<path d="M309.166 326.667C312.388 326.667 315 329.278 315 332.5C315 335.722 312.388 338.333 309.166 338.333C305.945 338.333 303.333 335.722 303.333 332.5C303.333 329.278 305.945 326.667 309.166 326.667Z" fill="black"/>
<path d="M332.499 326.667C335.721 326.667 338.333 329.278 338.333 332.5C338.333 335.722 335.721 338.333 332.499 338.333C329.278 338.333 326.666 335.722 326.666 332.5C326.666 329.278 329.278 326.667 332.499 326.667Z" fill="black"/>
<path d="M344.166 326.667C347.388 326.667 350 329.278 350 332.5C350 335.722 347.388 338.333 344.166 338.333C340.945 338.333 338.333 335.722 338.333 332.5C338.333 329.278 340.945 326.667 344.166 326.667Z" fill="black"/>
<path d="M355.833 326.667C359.055 326.667 361.667 329.278 361.667 332.5C361.667 335.722 359.055 338.333 355.833 338.333C352.612 338.333 350 335.722 350 332.5C350 329.278 352.612 326.667 355.833 326.667Z" fill="black"/>
<path d="M134.166 338.333C137.388 338.333 140 340.945 140 344.167C140 347.389 137.388 350 134.166 350C130.945 350 128.333 347.389 128.333 344.167C128.333 340.945 130.945 338.333 134.166 338.333Z" fill="black"/>
<path d="M145.833 338.333C149.055 338.333 151.667 340.945 151.667 344.167C151.667 347.389 149.055 350 145.833 350C142.612 350 140 347.389 140 344.167C140 340.945 142.612 338.333 145.833 338.333Z" fill="black"/>
<path d="M157.499 338.333C160.721 338.333 163.333 340.945 163.333 344.167C163.333 347.389 160.721 350 157.499 350C154.278 350 151.666 347.389 151.666 344.167C151.666 340.945 154.278 338.333 157.499 338.333Z" fill="black"/>
<path d="M192.499 338.333C195.721 338.333 198.333 340.945 198.333 344.167C198.333 347.389 195.721 350 192.499 350C189.278 350 186.666 347.389 186.666 344.167C186.666 340.945 189.278 338.333 192.499 338.333Z" fill="black"/>
<path d="M215.833 338.333C219.055 338.333 221.667 340.945 221.667 344.167C221.667 347.389 219.055 350 215.833 350C212.612 350 210 347.389 210 344.167C210 340.945 212.612 338.333 215.833 338.333Z" fill="black"/>
<path d="M285.833 338.333C289.055 338.333 291.667 340.945 291.667 344.167C291.667 347.389 289.055 350 285.833 350C282.612 350 280 347.389 280 344.167C280 340.945 282.612 338.333 285.833 338.333Z" fill="black"/>
<path d="M297.499 338.333C300.721 338.333 303.333 340.945 303.333 344.167C303.333 347.389 300.721 350 297.499 350C294.278 350 291.666 347.389 291.666 344.167C291.666 340.945 294.278 338.333 297.499 338.333Z" fill="black"/>
<path d="M309.166 338.333C312.388 338.333 315 340.945 315 344.167C315 347.389 312.388 350 309.166 350C305.945 350 303.333 347.389 303.333 344.167C303.333 340.945 305.945 338.333 309.166 338.333Z" fill="black"/>
<path d="M320.833 338.333C324.055 338.333 326.667 340.945 326.667 344.167C326.667 347.389 324.055 350 320.833 350C317.612 350 315 347.389 315 344.167C315 340.945 317.612 338.333 320.833 338.333Z" fill="black"/>
<path d="M332.499 338.333C335.721 338.333 338.333 340.945 338.333 344.167C338.333 347.389 335.721 350 332.499 350C329.278 350 326.666 347.389 326.666 344.167C326.666 340.945 329.278 338.333 332.499 338.333Z" fill="black"/>
<path d="M355.833 338.333C359.055 338.333 361.667 340.945 361.667 344.167C361.667 347.389 359.055 350 355.833 350C352.612 350 350 347.389 350 344.167C350 340.945 352.612 338.333 355.833 338.333Z" fill="black"/>
<path d="M122.499 350C125.721 350 128.333 352.612 128.333 355.833C128.333 359.055 125.721 361.667 122.499 361.667C119.278 361.667 116.666 359.055 116.666 355.833C116.666 352.612 119.278 350 122.499 350Z" fill="black"/>
<path d="M180.833 350C184.055 350 186.667 352.612 186.667 355.833C186.667 359.055 184.055 361.667 180.833 361.667C177.612 361.667 175 359.055 175 355.833C175 352.612 177.612 350 180.833 350Z" fill="black"/>
<path d="M204.166 350C207.388 350 210 352.612 210 355.833C210 359.055 207.388 361.667 204.166 361.667C200.945 361.667 198.333 359.055 198.333 355.833C198.333 352.612 200.945 350 204.166 350Z" fill="black"/>
<path d="M250.833 350C254.055 350 256.667 352.612 256.667 355.833C256.667 359.055 254.055 361.667 250.833 361.667C247.612 361.667 245 359.055 245 355.833C245 352.612 247.612 350 250.833 350Z" fill="black"/>
<path d="M262.499 350C265.721 350 268.333 352.612 268.333 355.833C268.333 359.055 265.721 361.667 262.499 361.667C259.278 361.667 256.666 359.055 256.666 355.833C256.666 352.612 259.278 350 262.499 350Z" fill="black"/>
<path d="M274.166 350C277.388 350 280 352.612 280 355.833C280 359.055 277.388 361.667 274.166 361.667C270.945 361.667 268.333 359.055 268.333 355.833C268.333 352.612 270.945 350 274.166 350Z" fill="black"/>
<path d="M285.833 350C289.055 350 291.667 352.612 291.667 355.833C291.667 359.055 289.055 361.667 285.833 361.667C282.612 361.667 280 359.055 280 355.833C280 352.612 282.612 350 285.833 350Z" fill="black"/>
<path d="M309.166 350C312.388 350 315 352.612 315 355.833C315 359.055 312.388 361.667 309.166 361.667C305.945 361.667 303.333 359.055 303.333 355.833C303.333 352.612 305.945 350 309.166 350Z" fill="black"/>
<path d="M77.1179 35.59H51.2148C47.8812 35.59 44.7885 36.6173 42.2486 38.365C40.2731 39.7247 38.6324 41.5206 37.4728 43.6088C36.2674 45.7787 35.583 48.263 35.583 50.9025V77.4204C35.583 85.868 42.5949 92.7411 51.2181 92.7411L64.1663 92.7436L77.1146 92.7403C85.7378 92.7403 92.7497 85.8672 92.7497 77.4204V50.9025C92.7497 42.4589 85.7378 35.59 77.1179 35.59Z" fill="black"/>
<path d="M77.1179 23.34H51.2148C38.5908 23.34 27.8957 31.6806 24.4763 43.0804C24.1227 44.2597 23.8467 45.4716 23.6548 46.7105C23.4433 48.0776 23.333 49.4774 23.333 50.9025V77.4204C23.333 92.626 35.8443 104.991 51.2148 104.991L64.1663 104.994L77.1179 104.99C92.4875 104.99 105 92.6251 105 77.4196V50.9025C105 35.7043 92.4883 23.34 77.1179 23.34ZM92.7497 77.4204C92.7497 85.868 85.7378 92.7411 77.1146 92.7411L64.1663 92.7436L51.2181 92.7403C42.5949 92.7403 35.583 85.8672 35.583 77.4204V50.9025C35.583 48.2638 36.2674 45.7795 37.472 43.6088C38.6316 41.5206 40.2723 39.7247 42.2478 38.365C44.7877 36.6165 47.8804 35.59 51.214 35.59H77.1179C85.7378 35.59 92.7497 42.4589 92.7497 50.9025V77.4204Z" fill="black"/>
<path d="M333.785 35.59H307.882C304.548 35.59 301.455 36.6173 298.916 38.365C296.94 39.7247 295.299 41.5206 294.14 43.6088C292.934 45.7787 292.25 48.263 292.25 50.9025V77.4204C292.25 85.868 299.262 92.7411 307.885 92.7411L320.833 92.7436L333.782 92.7403C342.405 92.7403 349.417 85.8672 349.417 77.4204V50.9025C349.417 42.4589 342.405 35.59 333.785 35.59Z" fill="black"/>
<path d="M333.785 23.34H307.882C295.258 23.34 284.563 31.6806 281.143 43.0804C280.79 44.2597 280.514 45.4716 280.322 46.7105C280.11 48.0776 280 49.4774 280 50.9025V77.4204C280 92.626 292.511 104.991 307.882 104.991L320.833 104.994L333.785 104.99C349.155 104.99 361.667 92.6251 361.667 77.4196V50.9025C361.667 35.7043 349.155 23.34 333.785 23.34ZM349.417 77.4204C349.417 85.868 342.405 92.7411 333.782 92.7411L320.833 92.7436L307.885 92.7403C299.262 92.7403 292.25 85.8672 292.25 77.4204V50.9025C292.25 48.2638 292.934 45.7795 294.139 43.6088C295.299 41.5206 296.939 39.7247 298.915 38.365C301.455 36.6165 304.547 35.59 307.881 35.59H333.785C342.405 35.59 349.417 42.4589 349.417 50.9025V77.4204Z" fill="black"/>
<path d="M77.1179 292.257H51.2148C47.8812 292.257 44.7885 293.284 42.2486 295.032C40.2731 296.391 38.6324 298.187 37.4728 300.275C36.2674 302.445 35.583 304.93 35.583 307.569V334.087C35.583 342.535 42.5949 349.408 51.2181 349.408L64.1663 349.41L77.1146 349.407C85.7378 349.407 92.7497 342.534 92.7497 334.087V307.569C92.7497 299.126 85.7378 292.257 77.1179 292.257Z" fill="black"/>
<path d="M77.1179 280.007H51.2148C38.5908 280.007 27.8957 288.347 24.4763 299.747C24.1227 300.926 23.8467 302.138 23.6548 303.377C23.4433 304.744 23.333 306.144 23.333 307.569V334.087C23.333 349.293 35.8443 361.658 51.2148 361.658L64.1663 361.66L77.1179 361.657C92.4875 361.657 105 349.292 105 334.086V307.569C105 292.371 92.4883 280.007 77.1179 280.007ZM92.7497 334.087C92.7497 342.535 85.7378 349.408 77.1146 349.408L64.1663 349.41L51.2181 349.407C42.5949 349.407 35.583 342.534 35.583 334.087V307.569C35.583 304.93 36.2674 302.446 37.472 300.275C38.6316 298.187 40.2723 296.391 42.2478 295.032C44.7877 293.283 47.8804 292.257 51.214 292.257H77.1179C85.7378 292.257 92.7497 299.126 92.7497 307.569V334.087Z" fill="black"/>
<path d="M56.2389 81.6667C50.9574 81.6667 46.6611 77.4555 46.6611 72.2839V56.0446C46.6611 54.429 47.0811 52.9086 47.8165 51.5783C48.5266 50.298 49.5318 49.1976 50.7425 48.3674C52.2975 47.2971 54.1931 46.6667 56.2336 46.6667H72.0981C77.3747 46.6667 81.6709 50.873 81.6709 56.0443V72.2836C81.6709 77.4548 77.375 81.6664 72.0981 81.6664H64.166L56.2389 81.6667Z" fill="black"/>
<path d="M312.906 81.6667C307.624 81.6667 303.328 77.4555 303.328 72.2839V56.0446C303.328 54.429 303.748 52.9086 304.483 51.5783C305.194 50.298 306.199 49.1976 307.409 48.3674C308.965 47.2971 310.86 46.6667 312.901 46.6667H328.765C334.042 46.6667 338.338 50.873 338.338 56.0443V72.2836C338.338 77.4548 334.042 81.6664 328.765 81.6664H320.833L312.906 81.6667Z" fill="black"/>
<path d="M56.2389 338.333C50.9574 338.333 46.6611 334.122 46.6611 328.951V312.711C46.6611 311.096 47.0811 309.575 47.8165 308.245C48.5266 306.965 49.5318 305.864 50.7425 305.034C52.2975 303.964 54.1931 303.333 56.2336 303.333H72.0981C77.3747 303.333 81.6709 307.54 81.6709 312.711V328.95C81.6709 334.121 77.375 338.333 72.0981 338.333H64.166L56.2389 338.333Z" fill="black"/>
</g>
<defs>
<clipPath id="clip0_41_3">
<rect width="385" height="385" fill="white"/>
</clipPath>
</defs>
</svg>
