<svg width="253" height="253" viewBox="0 0 253 253" fill="none" xmlns="http://www.w3.org/2000/svg">
<rect width="253" height="253" fill="white"/>
<g clip-path="url(#clip0_51_13)">
<path d="M167.25 181.003H153.5V158.086C153.5 155.655 152.534 153.323 150.815 151.604C149.096 149.885 146.764 148.919 144.333 148.919H107.667C105.235 148.919 102.904 149.885 101.185 151.604C99.4657 153.323 98.5 155.655 98.5 158.086V181.003H84.75V158.086C84.7572 152.01 87.174 146.186 91.4701 141.89C95.7663 137.594 101.591 135.177 107.667 135.169H144.333C150.409 135.177 156.234 137.594 160.53 141.89C164.826 146.186 167.243 152.01 167.25 158.086V181.003Z" fill="#3595E7"/>
<path d="M126 126C120.561 126 115.244 124.387 110.722 121.365C106.2 118.343 102.675 114.048 100.594 109.023C98.5121 103.999 97.9675 98.4692 99.0286 93.1347C100.09 87.8002 102.709 82.9002 106.555 79.0543C110.401 75.2083 115.301 72.5892 120.635 71.5281C125.97 70.467 131.499 71.0116 136.524 73.093C141.549 75.1744 145.844 78.6992 148.866 83.2215C151.887 87.7439 153.5 93.0607 153.5 98.4997C153.493 105.791 150.593 112.781 145.438 117.937C140.282 123.093 133.291 125.992 126 126V126ZM126 84.7497C123.281 84.7497 120.622 85.5561 118.361 87.067C116.1 88.5779 114.338 90.7253 113.297 93.2378C112.256 95.7503 111.984 98.515 112.514 101.182C113.045 103.849 114.355 106.299 116.278 108.222C118.2 110.145 120.65 111.455 123.318 111.986C125.985 112.516 128.75 112.244 131.262 111.203C133.775 110.162 135.922 108.4 137.433 106.139C138.944 103.878 139.75 101.219 139.75 98.4997C139.75 94.853 138.302 91.3556 135.723 88.777C133.144 86.1984 129.647 84.7497 126 84.7497Z" fill="#3595E7"/>
</g>
<defs>
<clipPath id="clip0_51_13">
<rect width="110" height="110" fill="white" transform="translate(71 71)"/>
</clipPath>
</defs>
</svg>
